<?xml version="1.0" encoding="UTF-8" standalone="no"?>
<svg xmlns="http://www.w3.org/2000/svg" version="1.2" baseProfile="tiny" viewBox="0.00 0.00 2788.00 751.00">
<g stroke-width="2.00" fill="none" stroke-linecap="butt">
<path stroke="#8bcccf" vector-effect="non-scaling-stroke" d="
  M 252.91 203.92
  C 254.06 197.99 254.59 191.57 252.28 185.73
  Q 250.35 180.88 247.58 179.63
  Q 240.57 176.48 233.93 172.48
  A 0.26 0.26 0.0 0 0 233.55 172.76
  C 234.33 176.42 235.12 179.94 235.31 183.79
  C 235.79 193.51 237.95 202.61 236.24 212.50
  Q 234.08 224.97 230.97 235.62
  Q 228.91 242.68 228.83 245.08
  C 228.61 251.69 233.43 257.85 236.66 262.07
  C 244.65 272.54 261.60 283.79 275.75 283.71
  Q 288.40 283.64 313.74 282.31
  Q 321.20 281.92 326.49 281.03
  C 351.37 276.88 376.91 270.47 400.76 261.31
  Q 410.57 257.54 431.83 248.26
  C 437.09 245.96 443.60 242.73 449.59 240.18
  C 452.07 239.12 455.26 236.98 458.20 236.30
  Q 460.07 235.87 458.54 237.02
  Q 420.74 265.33 377.73 280.97
  Q 367.85 284.56 357.66 287.13
  C 356.60 287.39 355.44 288.03 354.51 288.25
  C 331.88 293.64 306.55 297.30 283.00 296.23
  C 256.39 295.01 237.93 278.28 224.00 257.23
  Q 223.39 256.31 222.99 257.34
  Q 217.09 272.38 211.81 288.21
  C 206.81 303.22 203.36 317.47 202.22 332.71
  C 200.96 349.52 203.19 364.09 211.47 378.45
  C 227.70 406.59 262.06 417.85 292.75 417.18
  Q 316.47 416.66 331.74 413.04
  Q 351.18 408.44 355.99 406.71
  Q 384.90 396.35 410.03 378.74
  C 416.92 373.92 423.76 369.34 430.28 363.99
  C 439.18 356.68 449.06 347.65 458.63 338.36
  C 465.51 331.69 472.75 324.92 479.11 318.21
  C 496.55 299.82 511.61 279.37 525.54 258.24
  Q 528.30 254.05 531.97 247.50
  C 536.78 238.89 541.06 234.28 545.39 225.95
  C 550.33 216.46 537.68 209.72 532.95 203.29
  Q 531.87 201.82 531.70 203.63
  C 529.94 222.75 517.78 241.93 504.58 255.33
  Q 480.08 280.21 450.03 297.67
  C 428.57 310.15 406.05 320.52 382.49 328.43
  C 381.42 328.79 380.50 329.39 379.46 329.71
  Q 361.27 335.35 352.99 337.05
  C 336.11 340.52 318.60 342.12 301.41 343.07
  Q 291.15 343.64 284.65 342.63
  C 263.98 339.43 245.63 327.89 239.48 306.98
  Q 239.01 305.39 240.30 306.43
  C 249.71 313.99 259.83 320.86 271.95 323.13
  Q 277.11 324.09 290.61 324.44
  C 315.64 325.09 341.14 322.05 365.16 314.81
  C 373.43 312.31 381.92 309.86 389.57 306.87
  C 420.96 294.59 451.62 278.09 478.39 257.53
  C 492.86 246.42 507.40 233.48 515.65 216.92
  C 519.84 208.51 528.27 195.41 519.92 186.82
  C 515.18 181.95 511.35 177.87 507.83 172.10
  C 501.03 160.98 495.89 148.77 491.82 135.73
  C 489.69 128.93 486.46 121.57 481.72 116.23
  C 475.68 109.40 465.67 105.20 456.74 103.50
  C 426.33 97.71 394.08 100.23 363.52 105.81
  Q 350.37 108.22 337.24 110.76
  Q 327.03 112.74 305.24 120.44
  Q 297.97 123.01 290.75 125.71
  C 286.89 127.16 283.03 129.16 279.16 130.90
  C 267.70 136.08 255.88 142.41 246.44 151.55
  C 243.59 154.30 238.56 160.04 237.25 163.76
  Q 236.99 164.52 237.72 164.83
  Q 252.00 170.83 262.54 181.75
  C 269.46 188.91 258.16 199.57 253.45 204.21
  Q 252.71 204.94 252.91 203.92"
/>
<path stroke="#8bcccf" vector-effect="non-scaling-stroke" d="
  M 394.70 405.90
  Q 393.71 405.14 392.00 406.21"
/>
<path stroke="#959595" vector-effect="non-scaling-stroke" d="
  M 392.00 406.21
  C 382.99 408.60 386.12 418.68 380.96 423.99
  Q 373.91 431.23 364.17 440.41
  Q 362.53 441.96 361.20 444.43
  Q 355.32 455.36 353.97 467.27
  Q 353.39 472.44 352.67 477.73
  Q 352.58 478.42 352.11 477.90
  C 345.20 470.23 342.12 456.64 341.75 447.00
  Q 341.24 433.60 344.03 420.35
  A 0.73 0.72 -83.8 0 0 343.33 419.47
  Q 342.74 419.46 341.76 419.61
  C 328.78 421.59 315.96 423.86 302.90 424.42
  A 0.86 0.86 0.0 0 0 302.08 425.28
  Q 302.05 436.77 300.91 447.98
  Q 299.56 461.25 291.09 472.20
  Q 290.26 473.28 290.04 471.94
  Q 288.66 463.55 286.86 454.52
  C 285.05 445.43 282.49 438.73 277.39 431.43
  C 275.82 429.19 271.00 424.07 268.23 423.75
  C 261.98 423.01 254.74 421.12 249.21 421.38
  Q 238.20 421.89 230.07 429.08
  Q 222.02 436.20 213.88 443.19
  Q 205.98 449.97 199.71 453.59
  Q 183.19 463.14 164.30 467.04
  C 161.63 467.59 156.24 469.72 154.34 471.70
  C 150.77 475.44 152.54 483.39 154.73 487.90
  A 0.73 0.72 -33.7 0 1 154.55 488.77
  Q 153.41 489.72 151.59 490.57
  Q 134.65 498.47 118.49 503.02
  C 115.86 503.76 113.81 503.69 111.46 502.62
  A 0.39 0.38 -58.9 0 1 111.32 502.03
  Q 124.57 484.85 135.39 466.04
  Q 136.33 464.39 134.56 465.09
  L 129.56 467.04
  Q 127.00 468.04 128.17 465.58
  C 128.29 465.33 130.58 464.05 131.10 463.59
  Q 171.54 428.35 207.58 388.83
  A 0.59 0.59 0.0 0 0 207.64 388.11
  Q 200.85 377.50 196.50 365.64
  Q 196.32 365.14 195.83 364.91
  C 190.03 362.18 184.99 359.56 179.66 355.57
  Q 169.93 348.30 160.04 341.25
  Q 152.90 336.16 149.72 332.86
  C 136.83 319.52 130.06 296.86 134.14 278.48
  C 135.83 270.84 139.42 265.94 147.51 265.03
  C 154.73 264.21 159.84 265.46 167.00 268.59
  C 173.29 271.34 179.15 274.00 185.96 276.10
  C 193.22 278.33 198.24 280.74 204.00 284.14
  Q 204.26 284.30 204.38 284.01
  Q 206.62 278.43 209.29 272.96
  C 210.80 269.87 212.03 265.83 207.25 265.22
  Q 195.00 263.67 186.47 260.07
  C 177.62 256.33 168.85 251.75 160.04 248.43
  Q 152.75 245.69 150.00 245.32
  C 143.08 244.40 134.69 247.14 129.30 251.58
  Q 118.14 260.75 116.46 276.24
  Q 113.31 305.33 127.16 329.84
  C 129.25 333.53 133.47 338.19 137.17 342.27
  C 143.72 349.49 152.55 355.84 160.75 361.13
  A 0.40 0.40 0.0 0 1 160.78 361.79
  C 156.53 365.00 153.41 364.58 148.27 364.87
  A 1.74 1.74 0.0 0 0 146.93 367.58
  C 150.93 373.49 153.53 379.65 155.26 386.64
  Q 155.91 389.26 156.79 391.82
  Q 157.22 393.09 157.05 393.50
  Q 151.62 406.57 147.14 413.66
  C 140.09 424.82 135.92 430.68 130.34 439.21
  C 123.05 450.35 115.92 459.87 108.99 470.37
  C 108.32 471.40 107.30 472.42 106.58 473.57
  C 97.26 488.31 87.13 502.46 77.67 517.10
  Q 77.23 517.79 76.92 518.30
  A 0.69 0.68 22.7 0 0 77.34 519.31
  C 91.27 522.80 102.52 526.69 118.52 530.68
  C 119.12 530.83 119.63 531.27 120.18 531.38
  Q 128.84 533.13 137.25 535.77
  Q 138.15 536.05 138.21 536.51
  A 1.65 1.64 76.3 0 1 137.15 538.27
  Q 135.45 538.90 133.61 539.87
  Q 132.07 540.68 133.11 542.23
  A 1.71 1.70 78.9 0 0 134.19 542.96
  Q 149.69 546.33 165.36 549.54
  C 173.36 551.18 180.64 553.82 188.38 556.45
  Q 189.92 556.97 189.01 558.32
  Q 188.88 558.52 187.89 559.36
  Q 182.94 563.55 178.74 567.79
  A 1.34 1.33 31.5 0 0 179.27 569.99
  C 184.16 571.63 187.84 570.79 192.68 570.88
  Q 194.67 570.92 198.82 571.40
  C 205.80 572.23 214.18 571.92 219.72 572.19
  Q 229.44 572.66 238.95 573.11
  A 0.93 0.93 0.0 0 0 239.80 571.73
  Q 237.18 567.10 232.60 564.34
  Q 232.13 564.06 232.38 563.58
  C 234.76 559.12 236.27 554.39 238.64 550.20
  Q 239.60 548.50 239.66 550.45
  Q 239.80 554.83 240.86 559.13
  Q 241.00 559.69 241.29 559.19
  L 262.62 522.63
  Q 262.91 522.15 263.45 521.98
  C 272.93 519.08 279.14 508.58 280.95 499.40
  Q 281.06 498.83 281.65 498.82
  L 300.49 498.65
  A 0.64 0.63 82.6 0 1 301.12 499.14
  L 304.25 512.34
  A 0.99 0.99 0.0 0 0 305.68 512.99
  Q 315.11 508.02 324.20 502.93
  C 333.92 497.47 348.34 493.84 358.29 500.86
  C 361.65 503.24 365.47 508.10 367.52 511.63
  Q 371.92 519.20 375.63 527.20
  Q 376.06 528.13 376.93 527.58
  C 379.76 525.82 382.77 521.43 386.16 521.87
  Q 386.63 521.93 386.99 522.23
  C 396.15 529.80 407.45 537.90 413.68 550.11
  A 0.87 0.87 0.0 0 0 414.47 550.58
  Q 421.39 550.41 423.46 551.06
  Q 431.43 553.61 438.60 560.37
  Q 445.13 566.52 453.76 564.50
  C 456.93 563.76 460.75 561.68 463.98 560.09
  C 470.23 557.02 477.08 555.34 483.63 552.95
  Q 490.39 550.49 495.57 549.19
  Q 512.33 545.00 518.00 544.54
  C 528.25 543.72 538.25 542.79 548.69 542.81
  C 563.47 542.84 573.91 543.65 585.19 539.56
  C 597.61 535.04 610.11 531.14 622.74 527.26
  C 628.57 525.47 634.02 522.80 639.90 521.26
  A 1.52 1.52 0.0 0 0 640.63 518.76
  L 636.33 514.11
  Q 636.02 513.76 636.31 513.40
  C 638.74 510.39 647.04 508.39 651.79 506.97
  C 663.35 503.54 674.41 499.84 685.90 496.82
  C 687.29 496.45 688.76 495.77 690.26 495.38
  Q 702.94 492.05 715.60 489.50
  A 1.01 1.00 -13.0 0 0 716.38 488.26
  Q 715.86 486.25 714.42 484.84
  Q 709.29 479.82 704.70 474.30
  C 694.87 462.49 684.85 450.86 675.00 439.08
  Q 670.15 433.27 663.30 425.95
  C 657.86 420.13 674.24 415.59 677.16 414.58
  A 0.43 0.43 0.0 0 0 677.36 413.92
  Q 675.44 411.33 672.93 409.06
  C 667.11 403.80 662.58 400.07 654.97 394.20
  Q 647.06 388.09 641.07 379.99
  A 1.93 1.92 -27.8 0 1 641.99 377.03
  L 652.13 373.47
  A 0.43 0.43 0.0 0 0 652.26 372.73
  C 647.86 369.20 645.35 364.52 641.52 360.84
  C 637.03 356.50 633.93 352.80 633.26 347.75
  C 632.58 342.63 632.32 337.46 630.01 332.52
  Q 628.45 329.19 628.08 327.71
  C 626.80 322.59 627.56 314.14 630.34 309.50
  C 632.70 305.54 635.80 303.70 638.75 300.46
  C 641.20 297.74 644.20 295.11 646.14 292.57
  C 655.69 280.04 657.79 260.12 656.44 244.00
  C 654.90 225.62 649.81 209.32 636.55 196.22
  Q 630.26 190.01 621.59 189.27
  C 611.18 188.39 600.16 193.98 592.46 201.21
  Q 585.12 208.09 577.83 215.04
  C 576.66 216.16 575.19 217.92 573.71 219.16
  Q 571.23 221.23 570.44 222.01
  Q 557.56 234.77 542.08 244.17
  Q 541.66 244.42 541.51 244.90
  Q 538.80 253.43 534.11 261.10
  Q 526.62 273.32 518.11 284.85
  C 510.98 294.51 503.86 304.33 496.01 313.42
  Q 495.21 314.35 493.76 316.30
  C 490.93 320.13 487.59 323.45 484.66 328.13
  Q 482.76 331.16 480.90 335.61
  Q 477.83 342.98 474.43 350.21
  A 0.61 0.61 0.0 0 0 475.00 351.08
  C 490.96 350.80 505.88 356.04 519.56 363.46
  C 530.00 369.12 542.76 377.57 552.35 382.53
  Q 572.04 392.71 593.70 398.15
  Q 594.32 398.30 594.13 398.91
  C 592.92 402.77 592.08 406.45 595.30 409.96
  C 601.10 416.26 607.60 421.31 613.47 427.76
  C 617.58 432.27 622.34 436.62 626.08 441.08
  Q 628.55 444.02 630.88 447.07
  Q 636.95 455.04 643.10 462.94
  Q 646.30 467.05 649.20 471.70
  Q 649.54 472.24 648.91 472.34
  Q 639.94 473.84 630.72 475.69
  C 615.65 478.71 600.47 480.25 585.23 478.77
  Q 583.69 478.62 585.02 477.82
  Q 591.00 474.26 597.73 472.45
  A 0.65 0.64 -9.2 0 0 598.20 471.81
  Q 598.18 471.34 597.69 471.32
  C 584.67 470.79 572.86 468.20 556.75 464.95
  Q 545.62 462.69 528.11 454.78
  C 510.96 447.03 494.27 438.86 476.50 432.55
  Q 471.06 430.61 469.01 430.24
  C 457.13 428.04 445.31 424.86 433.26 423.88
  C 424.03 423.13 415.27 421.80 406.25 420.81
  C 395.43 419.61 401.93 409.02 394.70 405.90"
/>
<path stroke="#216265" vector-effect="non-scaling-stroke" d="
  M 392.00 406.21
  L 394.70 405.90"
/>
<path stroke="#959595" vector-effect="non-scaling-stroke" d="
  M 173.61 283.18
  C 150.52 279.25 153.85 301.01 158.98 314.28
  Q 163.00 324.68 170.38 330.13
  Q 181.32 338.21 193.86 344.34
  A 0.43 0.42 -80.1 0 0 194.47 343.91
  Q 192.31 324.27 198.04 305.05
  Q 199.79 299.18 201.41 293.53
  A 0.95 0.94 16.8 0 0 200.78 292.37
  C 192.44 289.74 183.14 284.80 173.61 283.18"
/>
<path stroke="#959595" vector-effect="non-scaling-stroke" d="
  M 335.66 630.63
  C 336.29 629.56 337.90 628.44 338.67 627.36
  C 351.55 609.16 334.17 586.93 319.86 576.64
  Q 319.44 576.34 319.61 575.85
  C 322.90 566.31 327.40 556.41 329.10 545.24
  Q 329.33 543.78 329.28 542.45
  A 0.44 0.44 0.0 0 0 328.62 542.08
  C 321.28 546.23 316.86 553.11 312.54 560.00
  C 310.47 563.31 308.23 565.83 305.68 568.53
  C 303.77 570.56 301.43 571.84 299.11 573.36
  A 0.90 0.88 46.2 0 1 298.08 573.33
  Q 292.18 568.88 289.86 561.59
  C 287.66 554.68 286.17 547.69 283.69 540.87
  Q 283.62 540.69 283.51 540.61
  Q 283.39 540.53 283.24 540.50
  Q 282.76 540.40 282.75 540.89
  C 282.58 548.18 281.11 555.64 280.45 562.26
  C 279.65 570.11 279.84 577.35 273.79 583.24
  Q 269.52 587.40 269.22 587.76
  C 263.48 594.75 257.77 603.57 254.77 612.43
  Q 253.76 615.41 254.51 618.10
  C 256.33 624.74 262.07 628.66 268.33 630.83
  C 270.99 631.75 273.75 633.15 275.51 634.47
  Q 281.77 639.19 285.80 640.58
  C 295.19 643.82 305.01 644.80 314.54 647.64
  Q 319.12 649.01 323.88 649.32
  C 338.50 650.26 355.18 648.64 368.46 642.02
  C 373.12 639.70 378.54 638.35 382.71 635.52
  Q 384.98 633.97 385.77 633.52
  C 393.91 628.85 400.44 623.02 407.72 617.21
  C 412.54 613.36 416.67 608.15 421.15 603.97
  C 430.90 594.86 441.32 586.29 449.47 575.70
  Q 450.70 574.12 448.71 574.38
  Q 441.47 575.33 434.37 579.21
  Q 431.61 580.72 428.93 582.34
  Q 426.29 583.95 423.78 585.93
  C 414.74 593.09 407.22 601.53 398.42 608.99
  Q 387.49 618.27 379.98 622.01
  C 365.67 629.13 353.20 634.20 336.43 632.18
  Q 334.86 631.99 335.66 630.63"
/>
<path stroke="#8bcccf" vector-effect="non-scaling-stroke" d="
  M 338.62 191.08
  C 362.50 185.85 386.46 180.94 410.40 175.98
  Q 429.39 172.04 446.11 164.86
  Q 449.43 163.44 445.88 164.10
  C 411.66 170.52 376.45 176.17 341.60 181.57
  C 330.67 183.26 319.19 185.60 307.98 187.61
  C 291.05 190.63 274.67 198.58 269.32 216.44
  Q 268.79 218.20 270.01 216.82
  Q 279.45 206.15 293.75 201.31
  C 308.08 196.46 323.68 194.36 338.62 191.08"
/>
<path stroke="#959595" vector-effect="non-scaling-stroke" d="
  M 583.55 230.29
  C 580.79 232.76 577.85 235.13 575.27 237.71
  Q 565.52 247.44 561.73 250.21
  C 551.18 257.92 543.62 266.17 539.49 278.60
  A 0.37 0.37 0.0 0 0 539.95 279.07
  C 548.74 276.47 558.93 272.01 565.68 265.54
  C 568.79 262.56 571.32 259.20 574.35 256.18
  Q 575.73 254.80 577.24 252.92
  C 578.91 250.85 581.18 248.88 582.73 247.16
  Q 587.27 242.15 592.04 237.34
  C 598.80 230.54 609.12 228.63 616.59 234.92
  C 620.22 237.98 621.55 245.03 621.92 249.51
  C 623.03 262.65 620.77 280.72 610.21 289.97
  C 605.81 293.82 600.56 297.87 596.99 302.48
  Q 595.25 304.73 593.61 307.06
  Q 585.96 317.97 579.26 331.91
  Q 578.71 333.06 579.98 333.15
  Q 587.89 333.72 595.48 331.67
  A 0.68 0.68 0.0 0 1 596.33 332.41
  C 596.03 335.00 592.91 338.94 591.41 340.92
  Q 590.63 341.95 591.89 341.69
  C 600.98 339.86 609.22 331.59 610.73 322.50
  C 611.32 318.95 611.14 313.95 612.21 310.22
  C 614.08 303.68 618.89 297.13 623.98 292.64
  C 633.51 284.22 639.85 275.65 640.26 262.50
  Q 640.77 246.16 636.42 229.62
  Q 634.49 222.27 631.83 218.36
  C 626.47 210.53 616.43 205.31 607.47 210.99
  C 604.02 213.18 600.73 215.10 597.61 217.85
  Q 594.65 220.48 591.64 223.05
  C 590.31 224.18 588.94 225.90 587.27 227.07
  C 585.82 228.09 584.79 229.18 583.55 230.29"
/>
<path stroke="#959595" vector-effect="non-scaling-stroke" d="
  M 378.31 463.46
  A 2.93 2.91 -31.5 0 1 379.24 459.62
  C 381.28 458.24 383.53 456.52 384.66 454.30
  C 386.53 450.64 386.07 443.95 381.23 442.31
  Q 380.76 442.15 380.28 442.32
  C 375.86 443.89 374.58 449.01 372.68 453.67
  C 371.16 457.38 369.82 462.98 370.83 466.91
  Q 371.33 468.85 373.22 470.37
  C 380.02 475.84 387.65 479.36 396.19 477.81
  C 407.52 475.75 416.90 465.21 415.42 453.16
  Q 414.97 449.47 414.43 448.01
  C 411.86 441.03 403.87 437.96 396.06 437.59
  Q 394.22 437.51 393.71 439.28
  L 393.57 439.73
  A 1.34 1.33 13.1 0 0 394.62 441.41
  C 401.24 442.62 404.84 446.41 407.58 451.16
  C 411.39 457.77 407.40 465.03 401.36 468.56
  C 393.76 472.99 382.85 471.70 378.31 463.46"
/>
<path stroke="#959595" vector-effect="non-scaling-stroke" d="
  M 249.55 461.28
  C 252.99 460.15 255.51 458.82 254.42 454.55
  C 254.21 453.74 253.44 452.97 253.25 452.03
  Q 253.14 451.53 253.52 451.19
  Q 256.57 448.38 260.63 447.93
  Q 261.13 447.87 261.42 447.46
  Q 262.27 446.27 261.78 444.88
  Q 261.60 444.38 261.10 444.24
  Q 250.21 441.10 242.67 447.70
  C 233.98 455.32 234.70 468.33 243.53 475.43
  C 251.78 482.07 265.13 480.38 272.07 472.04
  Q 272.42 471.62 272.30 471.08
  C 271.88 469.30 270.23 469.08 268.65 469.76
  C 261.85 472.69 250.04 470.92 249.09 461.99
  Q 249.03 461.45 249.55 461.28"
/>
<path stroke="#959595" vector-effect="non-scaling-stroke" d="
  M 970.55 398.67
  C 974.12 397.86 977.48 396.58 981.02 395.60
  Q 982.10 395.30 982.91 394.90
  Q 990.30 391.26 992.17 390.15
  C 998.91 386.14 1004.84 379.92 1008.95 373.00
  C 1016.85 359.66 1018.03 342.34 1014.70 327.00
  C 1008.53 298.60 981.83 285.05 954.50 284.62
  Q 927.64 284.20 880.14 284.63
  Q 868.31 284.73 868.30 296.75
  Q 868.24 386.03 868.47 475.30
  Q 868.49 481.16 869.16 483.12
  C 871.98 491.42 885.81 491.69 890.27 484.79
  Q 892.08 481.99 892.07 478.50
  Q 891.96 441.00 892.07 402.78
  Q 892.07 401.94 892.91 401.92
  Q 911.41 401.61 930.28 401.88
  C 941.82 402.04 953.75 404.40 961.16 413.59
  C 964.81 418.11 967.67 423.73 970.64 429.25
  Q 984.11 454.35 997.50 479.50
  C 1001.07 486.22 1005.46 490.37 1013.58 489.47
  Q 1018.37 488.94 1020.41 485.42
  C 1023.82 479.52 1020.20 473.24 1017.33 467.90
  Q 1003.38 441.94 989.10 416.17
  Q 982.75 404.72 970.51 399.06
  Q 969.94 398.80 970.55 398.67"
/>
<path stroke="#959595" vector-effect="non-scaling-stroke" d="
  M 1766.86 398.50
  C 1770.75 397.84 1774.15 396.10 1778.12 395.10
  Q 1779.26 394.81 1780.04 394.40
  Q 1782.59 393.04 1785.10 391.70
  Q 1797.89 384.86 1804.94 373.02
  C 1812.79 359.85 1814.20 341.88 1810.71 326.99
  C 1803.42 295.83 1775.59 284.61 1746.25 284.55
  Q 1693.27 284.46 1675.14 284.65
  C 1665.34 284.75 1664.34 292.82 1664.34 300.50
  Q 1664.39 387.88 1664.35 475.25
  C 1664.35 485.40 1669.84 492.28 1680.77 489.02
  C 1687.45 487.03 1688.24 482.14 1688.22 475.45
  Q 1688.09 438.98 1687.98 402.49
  A 0.64 0.63 -0.5 0 1 1688.61 401.86
  Q 1708.65 401.68 1728.81 401.97
  C 1737.35 402.09 1745.65 403.84 1752.04 408.69
  C 1760.70 415.26 1764.97 426.45 1770.20 435.95
  Q 1782.60 458.47 1794.55 481.23
  Q 1799.56 490.78 1810.50 489.14
  C 1816.01 488.31 1818.81 483.08 1817.64 477.89
  Q 1817.14 475.66 1814.94 471.47
  Q 1802.64 448.11 1790.24 424.81
  C 1784.67 414.35 1778.03 404.10 1766.78 399.24
  Q 1765.57 398.72 1766.86 398.50"
/>
<path stroke="#959595" vector-effect="non-scaling-stroke" d="
  M 1069.99 422.54
  Q 1115.66 422.51 1162.20 422.79
  C 1166.93 422.82 1173.46 421.22 1173.83 415.51
  C 1175.78 385.83 1161.84 355.05 1131.00 347.09
  C 1108.74 341.34 1084.16 346.69 1067.05 362.88
  Q 1065.28 364.56 1063.34 367.00
  C 1060.45 370.66 1057.34 374.30 1055.30 378.23
  C 1046.26 395.62 1043.86 416.45 1047.41 435.28
  C 1056.24 482.09 1100.75 498.06 1142.75 486.52
  C 1151.93 484.00 1177.66 474.35 1170.18 461.61
  C 1167.87 457.68 1164.26 456.34 1160.02 458.06
  C 1154.17 460.43 1150.47 463.94 1145.05 466.05
  C 1130.53 471.71 1112.49 473.56 1097.80 468.18
  Q 1078.21 461.00 1071.96 440.66
  Q 1069.80 433.62 1068.73 423.96
  Q 1068.57 422.54 1069.99 422.54"
/>
<path stroke="#959595" vector-effect="non-scaling-stroke" d="
  M 1224.52 399.21
  C 1226.35 389.16 1231.62 380.16 1238.73 373.71
  C 1251.37 362.24 1272.73 361.86 1287.42 368.00
  C 1291.70 369.79 1296.39 372.91 1300.70 375.52
  C 1305.75 378.57 1311.01 374.76 1312.51 369.73
  Q 1314.25 363.87 1309.93 359.83
  Q 1303.11 353.47 1291.75 349.52
  Q 1262.41 339.32 1234.38 351.78
  C 1232.14 352.77 1229.90 354.40 1227.58 355.63
  Q 1224.43 357.30 1222.68 358.80
  C 1204.97 373.96 1198.63 395.00 1199.06 417.99
  C 1199.84 460.44 1223.34 490.24 1267.80 490.02
  C 1282.66 489.95 1297.69 484.61 1309.28 475.32
  C 1312.63 472.63 1312.68 466.11 1310.75 462.65
  C 1306.58 455.16 1298.79 460.19 1293.18 463.86
  C 1282.08 471.12 1269.16 472.49 1256.27 469.68
  C 1224.32 462.73 1219.76 425.28 1224.52 399.21"
/>
<path stroke="#959595" vector-effect="non-scaling-stroke" d="
  M 1460.06 440.50
  C 1465.31 420.06 1463.63 395.51 1453.19 376.82
  Q 1440.41 353.95 1414.74 347.25
  C 1396.69 342.54 1374.39 344.85 1358.50 355.34
  C 1339.09 368.16 1330.42 389.94 1329.39 413.01
  C 1327.98 444.49 1340.31 475.29 1372.09 486.23
  C 1384.41 490.48 1398.99 491.26 1411.76 488.51
  C 1437.53 482.95 1453.70 465.29 1460.06 440.50"
/>
<path stroke="#959595" vector-effect="non-scaling-stroke" d="
  M 1520.82 370.00
  Q 1520.55 362.44 1520.20 354.89
  C 1519.61 341.86 1497.99 342.14 1497.94 356.00
  Q 1497.71 414.04 1497.76 472.07
  Q 1497.76 480.15 1499.00 483.26
  C 1503.32 494.07 1521.32 490.87 1521.31 478.75
  Q 1521.25 424.30 1521.41 405.50
  C 1521.50 396.42 1524.24 386.10 1529.96 378.95
  C 1533.20 374.90 1538.34 369.83 1543.46 368.04
  C 1544.95 367.52 1545.45 366.46 1547.16 366.14
  C 1554.58 364.76 1561.93 363.64 1569.49 364.50
  C 1587.01 366.50 1594.54 379.55 1594.80 395.75
  Q 1595.23 422.20 1595.16 477.25
  C 1595.15 484.13 1598.90 489.79 1606.25 489.77
  C 1616.64 489.74 1618.81 483.05 1618.76 474.25
  Q 1618.54 435.62 1618.30 397.01
  C 1618.14 369.60 1605.79 347.82 1576.03 345.14
  C 1559.09 343.61 1542.80 347.60 1529.59 359.31
  C 1528.34 360.41 1527.59 361.97 1526.37 363.21
  C 1524.20 365.42 1523.06 367.83 1521.18 370.12
  Q 1520.84 370.54 1520.82 370.00"
/>
<path stroke="#959595" vector-effect="non-scaling-stroke" d="
  M 1940.56 464.81
  Q 1940.48 470.73 1940.54 477.25
  C 1940.62 485.00 1945.46 490.60 1953.77 489.48
  C 1961.38 488.46 1962.61 482.39 1962.64 475.36
  Q 1962.87 425.39 1962.21 391.50
  C 1961.98 379.62 1957.43 366.36 1948.86 357.83
  C 1939.71 348.72 1925.46 345.29 1912.48 345.02
  Q 1887.17 344.51 1864.57 355.12
  Q 1857.93 358.24 1855.80 361.18
  C 1852.63 365.54 1854.86 375.92 1861.73 376.46
  C 1865.17 376.73 1870.64 373.53 1874.00 371.95
  C 1892.24 363.43 1929.10 354.95 1938.11 381.59
  C 1940.61 388.97 1940.05 397.84 1940.01 405.42
  Q 1940.01 406.20 1939.23 406.20
  Q 1923.94 406.24 1910.30 406.82
  C 1896.86 407.39 1885.76 408.96 1873.54 412.34
  C 1865.27 414.63 1854.79 420.02 1850.99 428.24
  C 1844.07 443.25 1845.82 459.91 1856.18 472.62
  C 1876.60 497.68 1925.48 496.54 1939.96 464.67
  Q 1940.58 463.31 1940.56 464.81"
/>
<path stroke="#959595" vector-effect="non-scaling-stroke" d="
  M 2056.03 365.17
  C 2068.96 362.83 2083.30 364.51 2094.21 373.08
  C 2096.87 375.17 2101.80 377.40 2105.21 376.01
  C 2109.71 374.18 2112.18 368.23 2110.61 363.86
  Q 2109.69 361.33 2106.02 358.39
  C 2088.66 344.47 2062.78 342.18 2042.26 348.23
  C 2033.50 350.82 2026.48 354.06 2020.05 359.87
  C 2017.40 362.27 2014.59 364.51 2012.49 367.46
  Q 2011.15 369.35 2009.79 371.22
  Q 2002.51 381.23 1999.76 393.30
  Q 1994.08 418.23 2000.43 442.48
  C 2009.44 476.87 2040.19 493.99 2074.34 489.62
  C 2079.31 488.98 2084.61 487.12 2089.71 485.68
  Q 2095.48 484.06 2103.76 477.76
  C 2107.06 475.26 2109.72 473.96 2110.31 469.61
  C 2111.12 463.68 2105.99 456.07 2099.19 459.39
  C 2093.84 462.00 2089.52 465.44 2083.49 467.85
  C 2072.27 472.34 2057.91 472.01 2047.30 467.44
  C 2022.10 456.58 2018.14 424.27 2022.42 401.02
  C 2025.38 384.94 2033.50 372.21 2049.41 366.36
  C 2051.51 365.59 2053.78 365.57 2056.03 365.17"
/>
<path stroke="#959595" vector-effect="non-scaling-stroke" d="
  M 2217.60 369.00
  Q 2223.15 371.74 2228.36 375.09
  C 2233.54 378.40 2238.89 375.60 2240.79 370.27
  C 2243.56 362.48 2236.90 358.05 2230.43 354.35
  C 2209.63 342.42 2183.69 342.12 2162.37 352.04
  C 2157.21 354.45 2151.00 358.54 2147.12 362.53
  C 2126.88 383.35 2123.51 414.65 2130.54 441.75
  C 2136.54 464.88 2152.78 482.36 2176.25 487.96
  Q 2198.09 493.18 2219.78 485.52
  C 2227.45 482.81 2231.50 479.48 2237.22 475.28
  C 2241.11 472.43 2240.70 469.70 2239.95 465.24
  C 2238.90 459.02 2232.98 457.30 2227.85 460.26
  C 2224.04 462.46 2220.21 465.10 2216.43 466.82
  Q 2211.49 469.08 2209.25 469.46
  C 2204.80 470.23 2200.28 471.26 2195.88 471.06
  C 2180.53 470.34 2168.51 465.48 2160.11 452.05
  C 2150.73 437.05 2149.91 417.28 2152.85 400.26
  C 2155.30 386.06 2162.66 374.79 2175.33 368.23
  Q 2179.33 366.15 2184.54 365.30
  C 2196.39 363.37 2206.68 363.60 2217.60 369.00"
/>
<path stroke="#959595" vector-effect="non-scaling-stroke" d="
  M 2267.48 459.30
  C 2285.88 491.65 2330.58 498.46 2360.92 480.07
  C 2389.38 462.83 2395.63 424.79 2388.50 394.77
  C 2381.91 367.01 2361.98 349.20 2334.22 345.55
  C 2320.06 343.69 2304.34 345.76 2291.60 352.66
  C 2271.96 363.29 2261.21 382.22 2258.54 404.26
  C 2256.30 422.74 2258.31 443.17 2267.48 459.30"
/>
<path stroke="#959595" vector-effect="non-scaling-stroke" d="
  M 2536.55 369.23
  C 2519.26 346.41 2488.51 340.22 2461.95 348.33
  Q 2450.39 351.86 2444.05 357.30
  C 2440.97 359.95 2437.12 362.64 2434.79 365.97
  C 2432.74 368.90 2430.01 371.52 2428.42 374.25
  C 2416.98 393.88 2415.01 418.79 2420.34 440.46
  C 2429.55 477.93 2460.01 493.75 2497.37 489.11
  C 2500.46 488.73 2503.55 487.57 2506.61 486.62
  C 2530.71 479.14 2545.10 459.81 2549.53 435.50
  C 2553.63 413.01 2550.40 387.50 2536.55 369.23"
/>
<path stroke="#959595" vector-effect="non-scaling-stroke" d="
  M 2609.59 370.22
  Q 2608.82 371.41 2608.77 369.99
  Q 2608.55 363.77 2608.57 357.75
  C 2608.58 349.15 2605.43 345.46 2596.48 345.76
  C 2587.43 346.05 2586.22 351.87 2586.21 359.92
  Q 2586.16 418.83 2586.43 477.75
  Q 2586.48 490.26 2598.99 489.33
  Q 2609.67 488.52 2609.64 478.14
  Q 2609.55 443.79 2609.72 409.43
  Q 2609.76 399.16 2611.17 393.70
  C 2613.63 384.20 2618.57 376.99 2626.52 370.90
  C 2629.52 368.61 2634.86 366.30 2638.53 365.62
  C 2646.63 364.11 2652.73 363.62 2661.01 364.99
  C 2677.56 367.74 2683.31 383.09 2683.34 398.00
  Q 2683.43 437.32 2683.49 476.64
  Q 2683.50 481.54 2684.56 483.69
  C 2688.55 491.79 2702.40 491.72 2705.78 483.60
  Q 2706.76 481.24 2706.80 473.78
  Q 2706.96 435.77 2706.93 397.75
  Q 2706.91 381.09 2700.74 368.25
  C 2688.48 342.76 2654.46 340.45 2631.35 350.25
  C 2628.36 351.52 2625.50 353.61 2622.72 355.47
  C 2617.14 359.19 2613.12 364.79 2609.59 370.22"
/>
<path stroke="#959595" vector-effect="non-scaling-stroke" d="
  M 990.07 327.02
  C 983.78 307.61 961.82 304.54 944.50 304.37
  Q 918.54 304.12 892.49 304.23
  A 0.49 0.49 0.0 0 0 892.00 304.72
  L 892.00 382.50
  A 0.53 0.53 0.0 0 0 892.53 383.03
  Q 920.63 383.03 948.75 382.73
  C 959.51 382.61 969.94 380.70 979.05 374.71
  C 980.57 373.71 981.75 372.32 983.13 371.05
  C 992.90 362.06 994.16 346.72 992.23 334.45
  C 991.83 331.90 990.89 329.54 990.07 327.02"
/>
<path stroke="#959595" vector-effect="non-scaling-stroke" d="
  M 1780.40 369.68
  C 1792.75 355.35 1792.40 326.09 1776.99 313.99
  C 1767.74 306.73 1755.09 304.53 1743.50 304.40
  Q 1716.01 304.11 1688.59 304.23
  A 0.52 0.52 0.0 0 0 1688.07 304.75
  L 1688.07 382.25
  A 0.75 0.74 -0.0 0 0 1688.82 382.99
  Q 1716.63 383.06 1744.75 382.92
  C 1757.18 382.85 1772.24 379.15 1780.40 369.68"
/>
<path stroke="#959595" vector-effect="non-scaling-stroke" d="
  M 1133.32 366.67
  C 1124.62 362.38 1117.06 362.21 1107.19 362.74
  C 1103.00 362.97 1099.60 364.10 1095.80 365.58
  C 1078.35 372.35 1071.01 389.79 1069.07 406.61
  A 0.44 0.43 -87.0 0 0 1069.50 407.10
  L 1153.00 407.10
  Q 1153.51 407.10 1153.52 406.59
  C 1153.71 391.74 1147.37 373.61 1133.32 366.67"
/>
<path stroke="#959595" vector-effect="non-scaling-stroke" d="
  M 1377.20 467.33
  C 1392.52 474.41 1412.70 472.21 1424.73 460.25
  C 1439.54 445.53 1440.94 420.21 1437.82 400.99
  C 1436.06 390.17 1429.79 376.55 1419.66 370.34
  Q 1405.85 361.86 1389.27 364.50
  Q 1385.05 365.17 1380.84 366.02
  C 1378.96 366.40 1377.71 367.43 1376.03 368.29
  C 1369.26 371.78 1363.92 377.12 1360.13 383.71
  C 1359.54 384.72 1359.38 385.90 1358.66 387.01
  Q 1357.67 388.53 1357.41 389.34
  C 1349.91 412.97 1349.87 454.70 1377.20 467.33"
/>
<path stroke="#959595" vector-effect="non-scaling-stroke" d="
  M 1935.57 451.09
  C 1939.77 441.71 1940.54 432.50 1939.92 422.32
  Q 1939.89 421.83 1939.40 421.81
  Q 1916.47 420.95 1893.74 423.94
  C 1891.13 424.29 1888.58 425.21 1885.96 425.84
  Q 1882.11 426.76 1880.30 427.76
  C 1876.13 430.05 1873.09 432.98 1871.62 437.67
  C 1868.88 446.41 1870.60 455.79 1876.62 462.68
  C 1883.66 470.71 1893.50 472.64 1903.99 472.21
  Q 1916.94 471.66 1925.90 463.45
  C 1929.88 459.79 1933.41 455.92 1935.57 451.09"
/>
<path stroke="#959595" vector-effect="non-scaling-stroke" d="
  M 2359.49 382.53
  C 2351.12 369.07 2337.18 362.94 2321.50 363.97
  C 2312.59 364.55 2307.17 365.81 2300.41 370.46
  C 2293.63 375.13 2287.47 382.90 2285.40 390.92
  C 2284.89 392.92 2283.93 395.03 2283.56 396.78
  Q 2279.10 418.02 2284.10 439.22
  C 2293.74 480.14 2349.09 482.97 2363.60 443.74
  Q 2364.97 440.03 2365.84 434.61
  C 2368.51 417.88 2368.61 397.17 2359.49 382.53"
/>
<path stroke="#959595" vector-effect="non-scaling-stroke" d="
  M 2502.34 367.38
  C 2490.26 361.81 2470.78 362.27 2459.91 370.84
  C 2455.17 374.57 2451.60 377.64 2448.60 383.59
  C 2445.98 388.81 2444.00 394.18 2442.90 400.01
  C 2437.96 426.17 2442.67 464.20 2474.98 470.39
  Q 2483.44 472.01 2489.00 471.07
  C 2492.87 470.43 2496.84 470.08 2500.34 468.60
  C 2518.17 461.05 2525.47 444.62 2527.02 426.25
  C 2528.91 403.75 2525.14 377.89 2502.34 367.38"
/>
<path stroke="#959595" vector-effect="non-scaling-stroke" d="
  M 293.81 609.42
  C 288.28 607.74 279.50 610.30 280.20 617.46
  Q 280.25 617.96 280.66 618.26
  C 282.78 619.78 284.82 622.04 286.75 623.00
  C 295.50 627.36 299.67 611.19 293.81 609.42"
/>
</g>
<g fill="#ffffff">
<path d="
  M 228.74 600.75
  Q 216.27 599.49 203.75 599.76
  C 199.40 599.85 194.08 598.74 188.75 598.91
  C 175.19 599.36 162.68 595.71 154.85 583.93
  C 153.21 581.47 152.33 578.59 151.45 575.67
  Q 151.30 575.16 150.78 575.04
  Q 141.82 572.99 132.87 571.09
  C 122.19 568.83 115.68 566.20 110.01 557.63
  A 1.18 1.15 -8.1 0 0 109.33 557.13
  Q 90.00 551.67 70.99 546.32
  C 66.14 544.96 59.79 541.74 56.51 537.58
  Q 55.34 536.09 54.26 534.53
  Q 47.14 524.27 49.44 512.95
  Q 50.45 507.97 55.00 500.68
  C 60.25 492.28 66.87 483.42 71.66 476.13
  C 86.29 453.87 101.60 432.08 116.48 409.99
  Q 117.07 409.12 119.66 404.75
  C 121.08 402.35 122.96 400.20 124.16 397.89
  Q 125.91 394.50 127.42 391.00
  Q 127.62 390.52 127.41 390.05
  C 125.13 384.78 121.24 379.49 120.00 374.58
  Q 118.72 369.54 119.20 364.25
  A 1.11 1.09 25.2 0 0 118.87 363.36
  C 104.23 349.07 95.12 331.53 90.62 311.83
  C 87.76 299.29 87.45 286.28 88.79 273.44
  Q 89.88 263.01 92.94 255.41
  C 97.42 244.29 105.34 233.67 115.71 227.13
  C 117.96 225.71 120.05 224.09 122.39 223.01
  C 140.27 214.77 156.27 216.16 173.86 224.03
  Q 181.16 227.30 181.20 227.32
  C 189.00 230.60 194.74 234.03 201.43 235.71
  Q 201.95 235.84 202.11 235.33
  Q 206.40 221.74 208.97 207.75
  Q 209.35 205.63 209.10 203.51
  Q 208.60 199.23 207.66 185.13
  C 207.46 182.10 205.88 177.69 205.68 174.25
  C 205.24 166.71 208.00 162.23 210.49 155.88
  C 218.04 136.63 235.40 122.35 253.77 112.47
  Q 268.92 104.33 285.03 98.30
  Q 311.45 88.43 327.75 84.56
  C 337.28 82.31 346.89 80.60 356.52 78.81
  C 392.48 72.14 430.05 69.40 466.05 77.22
  C 471.70 78.45 478.92 81.17 483.25 83.31
  C 493.85 88.54 503.44 96.68 509.23 107.04
  C 510.62 109.52 512.22 111.85 513.26 114.45
  Q 518.07 126.51 522.38 138.77
  Q 523.81 142.84 525.64 146.47
  C 528.89 152.91 531.87 159.68 537.16 164.79
  Q 542.69 170.13 546.57 176.74
  Q 548.24 179.60 550.27 181.59
  Q 555.23 186.44 560.15 191.81
  Q 561.08 192.83 562.04 191.83
  C 575.66 177.65 590.70 165.46 610.63 161.93
  C 628.98 158.69 647.72 166.78 659.93 180.33
  C 685.51 208.74 689.51 252.62 679.48 288.25
  Q 678.57 291.49 675.43 297.87
  C 670.75 307.35 663.96 314.97 655.99 322.18
  A 0.72 0.72 0.0 0 0 655.83 323.04
  C 658.38 328.05 659.14 332.79 660.15 338.24
  Q 660.51 340.20 661.80 341.77
  Q 667.71 348.90 669.59 350.65
  Q 681.81 362.06 679.81 377.88
  Q 679.74 378.41 680.17 378.75
  Q 691.03 387.31 694.04 390.70
  C 696.64 393.62 699.65 396.62 701.45 399.85
  Q 708.80 413.08 702.03 427.46
  A 0.80 0.79 -53.0 0 0 702.15 428.32
  Q 713.57 441.45 724.74 454.77
  C 731.18 462.45 739.30 468.56 742.65 478.75
  C 746.86 491.55 742.13 506.52 730.20 513.20
  C 723.97 516.69 713.46 518.43 705.51 520.30
  C 693.67 523.09 681.82 526.92 670.13 530.39
  Q 668.43 530.89 666.86 531.73
  Q 666.41 531.97 666.18 532.42
  Q 662.64 539.44 656.47 543.82
  Q 653.42 545.98 646.32 548.38
  C 639.83 550.57 633.46 553.28 627.05 555.13
  Q 607.77 560.70 596.26 564.97
  Q 584.24 569.44 572.57 570.23
  C 563.28 570.85 550.52 569.96 539.53 570.73
  C 531.24 571.32 522.99 571.83 514.91 573.37
  Q 500.43 576.15 493.99 578.65
  Q 485.33 582.01 476.59 584.64
  A 2.01 2.01 0.0 0 0 475.33 585.79
  Q 473.27 590.75 469.60 595.33
  C 461.86 604.98 452.17 613.30 443.04 621.62
  C 438.14 626.08 433.12 631.98 428.15 636.38
  C 422.35 641.52 413.84 648.43 406.99 653.17
  C 395.71 660.97 384.90 665.20 373.26 670.31
  Q 363.86 674.45 350.02 676.19
  C 334.18 678.18 317.96 677.80 302.54 673.41
  C 292.66 670.60 282.35 669.60 272.55 665.41
  C 267.23 663.13 261.15 657.70 256.21 655.82
  C 233.80 647.29 220.77 624.99 229.09 601.31
  Q 229.27 600.81 228.74 600.75
  Z
  M 252.91 203.92
  C 254.06 197.99 254.59 191.57 252.28 185.73
  Q 250.35 180.88 247.58 179.63
  Q 240.57 176.48 233.93 172.48
  A 0.26 0.26 0.0 0 0 233.55 172.76
  C 234.33 176.42 235.12 179.94 235.31 183.79
  C 235.79 193.51 237.95 202.61 236.24 212.50
  Q 234.08 224.97 230.97 235.62
  Q 228.91 242.68 228.83 245.08
  C 228.61 251.69 233.43 257.85 236.66 262.07
  C 244.65 272.54 261.60 283.79 275.75 283.71
  Q 288.40 283.64 313.74 282.31
  Q 321.20 281.92 326.49 281.03
  C 351.37 276.88 376.91 270.47 400.76 261.31
  Q 410.57 257.54 431.83 248.26
  C 437.09 245.96 443.60 242.73 449.59 240.18
  C 452.07 239.12 455.26 236.98 458.20 236.30
  Q 460.07 235.87 458.54 237.02
  Q 420.74 265.33 377.73 280.97
  Q 367.85 284.56 357.66 287.13
  C 356.60 287.39 355.44 288.03 354.51 288.25
  C 331.88 293.64 306.55 297.30 283.00 296.23
  C 256.39 295.01 237.93 278.28 224.00 257.23
  Q 223.39 256.31 222.99 257.34
  Q 217.09 272.38 211.81 288.21
  C 206.81 303.22 203.36 317.47 202.22 332.71
  C 200.96 349.52 203.19 364.09 211.47 378.45
  C 227.70 406.59 262.06 417.85 292.75 417.18
  Q 316.47 416.66 331.74 413.04
  Q 351.18 408.44 355.99 406.71
  Q 384.90 396.35 410.03 378.74
  C 416.92 373.92 423.76 369.34 430.28 363.99
  C 439.18 356.68 449.06 347.65 458.63 338.36
  C 465.51 331.69 472.75 324.92 479.11 318.21
  C 496.55 299.82 511.61 279.37 525.54 258.24
  Q 528.30 254.05 531.97 247.50
  C 536.78 238.89 541.06 234.28 545.39 225.95
  C 550.33 216.46 537.68 209.72 532.95 203.29
  Q 531.87 201.82 531.70 203.63
  C 529.94 222.75 517.78 241.93 504.58 255.33
  Q 480.08 280.21 450.03 297.67
  C 428.57 310.15 406.05 320.52 382.49 328.43
  C 381.42 328.79 380.50 329.39 379.46 329.71
  Q 361.27 335.35 352.99 337.05
  C 336.11 340.52 318.60 342.12 301.41 343.07
  Q 291.15 343.64 284.65 342.63
  C 263.98 339.43 245.63 327.89 239.48 306.98
  Q 239.01 305.39 240.30 306.43
  C 249.71 313.99 259.83 320.86 271.95 323.13
  Q 277.11 324.09 290.61 324.44
  C 315.64 325.09 341.14 322.05 365.16 314.81
  C 373.43 312.31 381.92 309.86 389.57 306.87
  C 420.96 294.59 451.62 278.09 478.39 257.53
  C 492.86 246.42 507.40 233.48 515.65 216.92
  C 519.84 208.51 528.27 195.41 519.92 186.82
  C 515.18 181.95 511.35 177.87 507.83 172.10
  C 501.03 160.98 495.89 148.77 491.82 135.73
  C 489.69 128.93 486.46 121.57 481.72 116.23
  C 475.68 109.40 465.67 105.20 456.74 103.50
  C 426.33 97.71 394.08 100.23 363.52 105.81
  Q 350.37 108.22 337.24 110.76
  Q 327.03 112.74 305.24 120.44
  Q 297.97 123.01 290.75 125.71
  C 286.89 127.16 283.03 129.16 279.16 130.90
  C 267.70 136.08 255.88 142.41 246.44 151.55
  C 243.59 154.30 238.56 160.04 237.25 163.76
  Q 236.99 164.52 237.72 164.83
  Q 252.00 170.83 262.54 181.75
  C 269.46 188.91 258.16 199.57 253.45 204.21
  Q 252.71 204.94 252.91 203.92
  Z
  M 394.70 405.90
  Q 393.71 405.14 392.00 406.21
  C 382.99 408.60 386.12 418.68 380.96 423.99
  Q 373.91 431.23 364.17 440.41
  Q 362.53 441.96 361.20 444.43
  Q 355.32 455.36 353.97 467.27
  Q 353.39 472.44 352.67 477.73
  Q 352.58 478.42 352.11 477.90
  C 345.20 470.23 342.12 456.64 341.75 447.00
  Q 341.24 433.60 344.03 420.35
  A 0.73 0.72 -83.8 0 0 343.33 419.47
  Q 342.74 419.46 341.76 419.61
  C 328.78 421.59 315.96 423.86 302.90 424.42
  A 0.86 0.86 0.0 0 0 302.08 425.28
  Q 302.05 436.77 300.91 447.98
  Q 299.56 461.25 291.09 472.20
  Q 290.26 473.28 290.04 471.94
  Q 288.66 463.55 286.86 454.52
  C 285.05 445.43 282.49 438.73 277.39 431.43
  C 275.82 429.19 271.00 424.07 268.23 423.75
  C 261.98 423.01 254.74 421.12 249.21 421.38
  Q 238.20 421.89 230.07 429.08
  Q 222.02 436.20 213.88 443.19
  Q 205.98 449.97 199.71 453.59
  Q 183.19 463.14 164.30 467.04
  C 161.63 467.59 156.24 469.72 154.34 471.70
  C 150.77 475.44 152.54 483.39 154.73 487.90
  A 0.73 0.72 -33.7 0 1 154.55 488.77
  Q 153.41 489.72 151.59 490.57
  Q 134.65 498.47 118.49 503.02
  C 115.86 503.76 113.81 503.69 111.46 502.62
  A 0.39 0.38 -58.9 0 1 111.32 502.03
  Q 124.57 484.85 135.39 466.04
  Q 136.33 464.39 134.56 465.09
  L 129.56 467.04
  Q 127.00 468.04 128.17 465.58
  C 128.29 465.33 130.58 464.05 131.10 463.59
  Q 171.54 428.35 207.58 388.83
  A 0.59 0.59 0.0 0 0 207.64 388.11
  Q 200.85 377.50 196.50 365.64
  Q 196.32 365.14 195.83 364.91
  C 190.03 362.18 184.99 359.56 179.66 355.57
  Q 169.93 348.30 160.04 341.25
  Q 152.90 336.16 149.72 332.86
  C 136.83 319.52 130.06 296.86 134.14 278.48
  C 135.83 270.84 139.42 265.94 147.51 265.03
  C 154.73 264.21 159.84 265.46 167.00 268.59
  C 173.29 271.34 179.15 274.00 185.96 276.10
  C 193.22 278.33 198.24 280.74 204.00 284.14
  Q 204.26 284.30 204.38 284.01
  Q 206.62 278.43 209.29 272.96
  C 210.80 269.87 212.03 265.83 207.25 265.22
  Q 195.00 263.67 186.47 260.07
  C 177.62 256.33 168.85 251.75 160.04 248.43
  Q 152.75 245.69 150.00 245.32
  C 143.08 244.40 134.69 247.14 129.30 251.58
  Q 118.14 260.75 116.46 276.24
  Q 113.31 305.33 127.16 329.84
  C 129.25 333.53 133.47 338.19 137.17 342.27
  C 143.72 349.49 152.55 355.84 160.75 361.13
  A 0.40 0.40 0.0 0 1 160.78 361.79
  C 156.53 365.00 153.41 364.58 148.27 364.87
  A 1.74 1.74 0.0 0 0 146.93 367.58
  C 150.93 373.49 153.53 379.65 155.26 386.64
  Q 155.91 389.26 156.79 391.82
  Q 157.22 393.09 157.05 393.50
  Q 151.62 406.57 147.14 413.66
  C 140.09 424.82 135.92 430.68 130.34 439.21
  C 123.05 450.35 115.92 459.87 108.99 470.37
  C 108.32 471.40 107.30 472.42 106.58 473.57
  C 97.26 488.31 87.13 502.46 77.67 517.10
  Q 77.23 517.79 76.92 518.30
  A 0.69 0.68 22.7 0 0 77.34 519.31
  C 91.27 522.80 102.52 526.69 118.52 530.68
  C 119.12 530.83 119.63 531.27 120.18 531.38
  Q 128.84 533.13 137.25 535.77
  Q 138.15 536.05 138.21 536.51
  A 1.65 1.64 76.3 0 1 137.15 538.27
  Q 135.45 538.90 133.61 539.87
  Q 132.07 540.68 133.11 542.23
  A 1.71 1.70 78.9 0 0 134.19 542.96
  Q 149.69 546.33 165.36 549.54
  C 173.36 551.18 180.64 553.82 188.38 556.45
  Q 189.92 556.97 189.01 558.32
  Q 188.88 558.52 187.89 559.36
  Q 182.94 563.55 178.74 567.79
  A 1.34 1.33 31.5 0 0 179.27 569.99
  C 184.16 571.63 187.84 570.79 192.68 570.88
  Q 194.67 570.92 198.82 571.40
  C 205.80 572.23 214.18 571.92 219.72 572.19
  Q 229.44 572.66 238.95 573.11
  A 0.93 0.93 0.0 0 0 239.80 571.73
  Q 237.18 567.10 232.60 564.34
  Q 232.13 564.06 232.38 563.58
  C 234.76 559.12 236.27 554.39 238.64 550.20
  Q 239.60 548.50 239.66 550.45
  Q 239.80 554.83 240.86 559.13
  Q 241.00 559.69 241.29 559.19
  L 262.62 522.63
  Q 262.91 522.15 263.45 521.98
  C 272.93 519.08 279.14 508.58 280.95 499.40
  Q 281.06 498.83 281.65 498.82
  L 300.49 498.65
  A 0.64 0.63 82.6 0 1 301.12 499.14
  L 304.25 512.34
  A 0.99 0.99 0.0 0 0 305.68 512.99
  Q 315.11 508.02 324.20 502.93
  C 333.92 497.47 348.34 493.84 358.29 500.86
  C 361.65 503.24 365.47 508.10 367.52 511.63
  Q 371.92 519.20 375.63 527.20
  Q 376.06 528.13 376.93 527.58
  C 379.76 525.82 382.77 521.43 386.16 521.87
  Q 386.63 521.93 386.99 522.23
  C 396.15 529.80 407.45 537.90 413.68 550.11
  A 0.87 0.87 0.0 0 0 414.47 550.58
  Q 421.39 550.41 423.46 551.06
  Q 431.43 553.61 438.60 560.37
  Q 445.13 566.52 453.76 564.50
  C 456.93 563.76 460.75 561.68 463.98 560.09
  C 470.23 557.02 477.08 555.34 483.63 552.95
  Q 490.39 550.49 495.57 549.19
  Q 512.33 545.00 518.00 544.54
  C 528.25 543.72 538.25 542.79 548.69 542.81
  C 563.47 542.84 573.91 543.65 585.19 539.56
  C 597.61 535.04 610.11 531.14 622.74 527.26
  C 628.57 525.47 634.02 522.80 639.90 521.26
  A 1.52 1.52 0.0 0 0 640.63 518.76
  L 636.33 514.11
  Q 636.02 513.76 636.31 513.40
  C 638.74 510.39 647.04 508.39 651.79 506.97
  C 663.35 503.54 674.41 499.84 685.90 496.82
  C 687.29 496.45 688.76 495.77 690.26 495.38
  Q 702.94 492.05 715.60 489.50
  A 1.01 1.00 -13.0 0 0 716.38 488.26
  Q 715.86 486.25 714.42 484.84
  Q 709.29 479.82 704.70 474.30
  C 694.87 462.49 684.85 450.86 675.00 439.08
  Q 670.15 433.27 663.30 425.95
  C 657.86 420.13 674.24 415.59 677.16 414.58
  A 0.43 0.43 0.0 0 0 677.36 413.92
  Q 675.44 411.33 672.93 409.06
  C 667.11 403.80 662.58 400.07 654.97 394.20
  Q 647.06 388.09 641.07 379.99
  A 1.93 1.92 -27.8 0 1 641.99 377.03
  L 652.13 373.47
  A 0.43 0.43 0.0 0 0 652.26 372.73
  C 647.86 369.20 645.35 364.52 641.52 360.84
  C 637.03 356.50 633.93 352.80 633.26 347.75
  C 632.58 342.63 632.32 337.46 630.01 332.52
  Q 628.45 329.19 628.08 327.71
  C 626.80 322.59 627.56 314.14 630.34 309.50
  C 632.70 305.54 635.80 303.70 638.75 300.46
  C 641.20 297.74 644.20 295.11 646.14 292.57
  C 655.69 280.04 657.79 260.12 656.44 244.00
  C 654.90 225.62 649.81 209.32 636.55 196.22
  Q 630.26 190.01 621.59 189.27
  C 611.18 188.39 600.16 193.98 592.46 201.21
  Q 585.12 208.09 577.83 215.04
  C 576.66 216.16 575.19 217.92 573.71 219.16
  Q 571.23 221.23 570.44 222.01
  Q 557.56 234.77 542.08 244.17
  Q 541.66 244.42 541.51 244.90
  Q 538.80 253.43 534.11 261.10
  Q 526.62 273.32 518.11 284.85
  C 510.98 294.51 503.86 304.33 496.01 313.42
  Q 495.21 314.35 493.76 316.30
  C 490.93 320.13 487.59 323.45 484.66 328.13
  Q 482.76 331.16 480.90 335.61
  Q 477.83 342.98 474.43 350.21
  A 0.61 0.61 0.0 0 0 475.00 351.08
  C 490.96 350.80 505.88 356.04 519.56 363.46
  C 530.00 369.12 542.76 377.57 552.35 382.53
  Q 572.04 392.71 593.70 398.15
  Q 594.32 398.30 594.13 398.91
  C 592.92 402.77 592.08 406.45 595.30 409.96
  C 601.10 416.26 607.60 421.31 613.47 427.76
  C 617.58 432.27 622.34 436.62 626.08 441.08
  Q 628.55 444.02 630.88 447.07
  Q 636.95 455.04 643.10 462.94
  Q 646.30 467.05 649.20 471.70
  Q 649.54 472.24 648.91 472.34
  Q 639.94 473.84 630.72 475.69
  C 615.65 478.71 600.47 480.25 585.23 478.77
  Q 583.69 478.62 585.02 477.82
  Q 591.00 474.26 597.73 472.45
  A 0.65 0.64 -9.2 0 0 598.20 471.81
  Q 598.18 471.34 597.69 471.32
  C 584.67 470.79 572.86 468.20 556.75 464.95
  Q 545.62 462.69 528.11 454.78
  C 510.96 447.03 494.27 438.86 476.50 432.55
  Q 471.06 430.61 469.01 430.24
  C 457.13 428.04 445.31 424.86 433.26 423.88
  C 424.03 423.13 415.27 421.80 406.25 420.81
  C 395.43 419.61 401.93 409.02 394.70 405.90
  Z
  M 173.61 283.18
  C 150.52 279.25 153.85 301.01 158.98 314.28
  Q 163.00 324.68 170.38 330.13
  Q 181.32 338.21 193.86 344.34
  A 0.43 0.42 -80.1 0 0 194.47 343.91
  Q 192.31 324.27 198.04 305.05
  Q 199.79 299.18 201.41 293.53
  A 0.95 0.94 16.8 0 0 200.78 292.37
  C 192.44 289.74 183.14 284.80 173.61 283.18
  Z
  M 335.66 630.63
  C 336.29 629.56 337.90 628.44 338.67 627.36
  C 351.55 609.16 334.17 586.93 319.86 576.64
  Q 319.44 576.34 319.61 575.85
  C 322.90 566.31 327.40 556.41 329.10 545.24
  Q 329.33 543.78 329.28 542.45
  A 0.44 0.44 0.0 0 0 328.62 542.08
  C 321.28 546.23 316.86 553.11 312.54 560.00
  C 310.47 563.31 308.23 565.83 305.68 568.53
  C 303.77 570.56 301.43 571.84 299.11 573.36
  A 0.90 0.88 46.2 0 1 298.08 573.33
  Q 292.18 568.88 289.86 561.59
  C 287.66 554.68 286.17 547.69 283.69 540.87
  Q 283.62 540.69 283.51 540.61
  Q 283.39 540.53 283.24 540.50
  Q 282.76 540.40 282.75 540.89
  C 282.58 548.18 281.11 555.64 280.45 562.26
  C 279.65 570.11 279.84 577.35 273.79 583.24
  Q 269.52 587.40 269.22 587.76
  C 263.48 594.75 257.77 603.57 254.77 612.43
  Q 253.76 615.41 254.51 618.10
  C 256.33 624.74 262.07 628.66 268.33 630.83
  C 270.99 631.75 273.75 633.15 275.51 634.47
  Q 281.77 639.19 285.80 640.58
  C 295.19 643.82 305.01 644.80 314.54 647.64
  Q 319.12 649.01 323.88 649.32
  C 338.50 650.26 355.18 648.64 368.46 642.02
  C 373.12 639.70 378.54 638.35 382.71 635.52
  Q 384.98 633.97 385.77 633.52
  C 393.91 628.85 400.44 623.02 407.72 617.21
  C 412.54 613.36 416.67 608.15 421.15 603.97
  C 430.90 594.86 441.32 586.29 449.47 575.70
  Q 450.70 574.12 448.71 574.38
  Q 441.47 575.33 434.37 579.21
  Q 431.61 580.72 428.93 582.34
  Q 426.29 583.95 423.78 585.93
  C 414.74 593.09 407.22 601.53 398.42 608.99
  Q 387.49 618.27 379.98 622.01
  C 365.67 629.13 353.20 634.20 336.43 632.18
  Q 334.86 631.99 335.66 630.63
  Z"
/>
<path d="
  M 338.62 191.08
  C 323.68 194.36 308.08 196.46 293.75 201.31
  Q 279.45 206.15 270.01 216.82
  Q 268.79 218.20 269.32 216.44
  C 274.67 198.58 291.05 190.63 307.98 187.61
  C 319.19 185.60 330.67 183.26 341.60 181.57
  C 376.45 176.17 411.66 170.52 445.88 164.10
  Q 449.43 163.44 446.11 164.86
  Q 429.39 172.04 410.40 175.98
  C 386.46 180.94 362.50 185.85 338.62 191.08
  Z"
/>
<path d="
  M 583.55 230.29
  C 584.79 229.18 585.82 228.09 587.27 227.07
  C 588.94 225.90 590.31 224.18 591.64 223.05
  Q 594.65 220.48 597.61 217.85
  C 600.73 215.10 604.02 213.18 607.47 210.99
  C 616.43 205.31 626.47 210.53 631.83 218.36
  Q 634.49 222.27 636.42 229.62
  Q 640.77 246.16 640.26 262.50
  C 639.85 275.65 633.51 284.22 623.98 292.64
  C 618.89 297.13 614.08 303.68 612.21 310.22
  C 611.14 313.95 611.32 318.95 610.73 322.50
  C 609.22 331.59 600.98 339.86 591.89 341.69
  Q 590.63 341.95 591.41 340.92
  C 592.91 338.94 596.03 335.00 596.33 332.41
  A 0.68 0.68 0.0 0 0 595.48 331.67
  Q 587.89 333.72 579.98 333.15
  Q 578.71 333.06 579.26 331.91
  Q 585.96 317.97 593.61 307.06
  Q 595.25 304.73 596.99 302.48
  C 600.56 297.87 605.81 293.82 610.21 289.97
  C 620.77 280.72 623.03 262.65 621.92 249.51
  C 621.55 245.03 620.22 237.98 616.59 234.92
  C 609.12 228.63 598.80 230.54 592.04 237.34
  Q 587.27 242.15 582.73 247.16
  C 581.18 248.88 578.91 250.85 577.24 252.92
  Q 575.73 254.80 574.35 256.18
  C 571.32 259.20 568.79 262.56 565.68 265.54
  C 558.93 272.01 548.74 276.47 539.95 279.07
  A 0.37 0.37 0.0 0 1 539.49 278.60
  C 543.62 266.17 551.18 257.92 561.73 250.21
  Q 565.52 247.44 575.27 237.71
  C 577.85 235.13 580.79 232.76 583.55 230.29
  Z"
/>
<path d="
  M 1557.86 481.68
  C 1556.94 487.04 1555.79 492.84 1553.79 497.60
  C 1543.84 521.31 1516.75 531.84 1492.71 523.46
  Q 1475.69 517.54 1466.44 500.81
  A 0.42 0.42 0.0 0 0 1465.78 500.71
  C 1432.82 532.32 1376.62 534.75 1338.92 510.52
  Q 1335.00 507.99 1331.18 505.29
  Q 1330.74 504.98 1330.32 505.31
  Q 1312.67 519.09 1292.66 523.65
  C 1262.76 530.45 1229.51 525.87 1204.26 507.77
  C 1201.09 505.50 1198.00 502.54 1195.05 499.65
  Q 1194.65 499.26 1194.22 499.63
  C 1175.67 515.72 1150.79 524.90 1126.88 526.39
  C 1099.59 528.09 1073.37 522.49 1050.84 506.73
  A 0.57 0.56 -54.6 0 0 1050.06 506.87
  Q 1037.39 524.43 1015.51 525.88
  Q 988.55 527.66 971.79 507.23
  Q 968.26 502.93 961.05 489.40
  Q 947.80 464.57 934.31 439.41
  A 1.56 1.55 -12.9 0 0 932.99 438.59
  L 929.34 438.49
  Q 928.76 438.47 928.76 439.05
  Q 928.77 457.67 928.71 476.24
  C 928.65 495.16 920.38 512.16 903.12 520.89
  C 880.13 532.53 850.58 524.93 837.81 502.06
  C 832.68 492.87 832.04 483.48 832.04 472.25
  C 832.01 413.08 831.93 353.92 832.05 294.75
  C 832.10 268.21 852.93 248.04 879.50 247.92
  Q 931.30 247.69 953.13 247.90
  Q 963.79 248.00 976.75 250.50
  C 1016.62 258.17 1045.65 285.75 1051.84 326.90
  A 0.51 0.51 0.0 0 0 1052.64 327.24
  C 1077.52 309.42 1108.61 304.47 1138.22 311.23
  Q 1164.14 317.14 1182.48 336.27
  Q 1184.99 338.88 1187.59 341.43
  Q 1187.95 341.79 1188.30 341.41
  Q 1207.06 320.68 1234.01 312.98
  C 1266.74 303.62 1303.18 308.52 1330.48 329.41
  A 1.13 1.12 -45.2 0 0 1331.84 329.40
  C 1370.29 299.54 1430.13 301.31 1465.78 334.40
  A 0.42 0.42 0.0 0 0 1466.44 334.29
  C 1477.29 313.80 1500.21 304.46 1522.49 310.62
  Q 1526.59 311.76 1532.68 314.40
  Q 1533.16 314.60 1533.64 314.44
  C 1562.97 304.29 1603.73 306.01 1627.49 328.66
  A 0.30 0.30 0.0 0 0 1628.00 328.45
  Q 1628.01 316.16 1628.00 303.76
  Q 1627.99 289.67 1629.29 283.85
  C 1634.10 262.36 1653.38 248.16 1675.50 248.05
  Q 1731.56 247.78 1751.25 248.01
  Q 1764.33 248.16 1779.72 252.03
  C 1814.46 260.78 1840.16 286.47 1847.00 322.02
  A 0.64 0.63 -17.8 0 0 1847.89 322.47
  C 1877.29 308.62 1914.03 303.26 1945.43 313.98
  Q 1969.47 322.19 1983.95 342.75
  A 0.82 0.81 -42.1 0 0 1985.24 342.81
  C 1997.76 328.21 2013.73 317.89 2032.23 312.63
  C 2064.21 303.54 2101.80 308.40 2128.59 329.50
  Q 2129.01 329.82 2129.42 329.50
  Q 2148.74 314.43 2172.37 310.40
  C 2203.22 305.15 2233.54 310.35 2258.84 329.30
  A 1.03 1.03 0.0 0 0 2260.03 329.32
  Q 2265.62 325.46 2271.46 321.98
  C 2290.70 310.51 2311.75 307.34 2333.99 308.86
  C 2360.95 310.70 2386.83 323.23 2403.79 344.37
  A 0.63 0.63 0.0 0 0 2404.77 344.39
  Q 2427.48 317.39 2461.50 310.54
  C 2492.00 304.41 2530.36 311.16 2553.66 333.72
  Q 2554.44 334.48 2554.98 333.53
  C 2567.19 311.96 2591.24 304.03 2614.39 311.89
  Q 2617.68 313.01 2620.90 314.36
  Q 2621.36 314.56 2621.84 314.39
  C 2645.39 306.01 2674.78 305.96 2697.77 316.79
  C 2729.57 331.76 2742.92 363.29 2743.22 397.25
  Q 2743.54 433.87 2743.48 470.50
  Q 2743.46 484.63 2742.07 490.38
  C 2730.34 538.86 2658.13 537.91 2647.95 488.52
  A 1.53 1.53 0.0 0 0 2646.75 487.32
  Q 2645.39 487.05 2645.02 488.60
  Q 2637.77 518.75 2608.27 525.29
  Q 2595.24 528.17 2581.03 523.35
  Q 2563.64 517.44 2555.03 501.18
  A 0.71 0.71 0.0 0 0 2553.91 501.00
  C 2537.61 516.77 2514.59 525.13 2492.24 526.22
  Q 2477.51 526.94 2469.51 525.95
  Q 2462.04 525.03 2448.99 521.07
  Q 2430.22 515.36 2414.12 500.38
  Q 2412.02 498.43 2404.66 490.77
  Q 2404.28 490.37 2403.91 490.78
  Q 2398.12 497.13 2395.41 499.65
  Q 2372.04 521.38 2340.25 525.55
  C 2316.33 528.69 2291.52 525.00 2270.52 512.79
  C 2267.00 510.75 2263.10 507.79 2259.49 505.18
  A 0.71 0.70 43.0 0 0 2258.64 505.20
  C 2245.16 515.90 2229.77 523.12 2212.65 525.44
  C 2183.37 529.41 2153.17 523.76 2129.78 505.28
  A 1.03 1.03 0.0 0 0 2128.52 505.28
  Q 2106.36 522.66 2078.75 525.80
  C 2048.44 529.24 2017.41 522.22 1994.60 501.08
  Q 1994.03 500.56 1993.67 501.24
  C 1981.31 524.62 1953.53 532.49 1929.66 521.17
  Q 1929.21 520.95 1928.73 521.13
  C 1901.48 531.14 1867.91 527.43 1843.91 510.81
  Q 1843.32 510.40 1842.84 510.95
  Q 1829.90 525.67 1809.75 526.19
  C 1794.67 526.58 1778.19 520.23 1768.78 508.47
  Q 1765.87 504.82 1761.73 497.32
  Q 1746.49 469.67 1731.61 441.84
  C 1730.05 438.93 1728.50 437.70 1725.21 438.67
  Q 1724.75 438.80 1724.75 439.28
  Q 1724.78 468.47 1724.47 479.24
  C 1723.69 506.47 1703.88 525.77 1677.00 526.15
  Q 1656.67 526.43 1642.09 512.71
  A 0.60 0.60 0.0 0 0 1641.28 512.70
  Q 1622.02 529.93 1597.94 525.51
  Q 1587.44 523.58 1579.39 518.41
  Q 1564.64 508.94 1560.24 490.41
  Q 1559.19 485.94 1558.36 481.68
  A 0.26 0.25 44.8 0 0 1557.86 481.68
  Z
  M 970.55 398.67
  C 974.12 397.86 977.48 396.58 981.02 395.60
  Q 982.10 395.30 982.91 394.90
  Q 990.30 391.26 992.17 390.15
  C 998.91 386.14 1004.84 379.92 1008.95 373.00
  C 1016.85 359.66 1018.03 342.34 1014.70 327.00
  C 1008.53 298.60 981.83 285.05 954.50 284.62
  Q 927.64 284.20 880.14 284.63
  Q 868.31 284.73 868.30 296.75
  Q 868.24 386.03 868.47 475.30
  Q 868.49 481.16 869.16 483.12
  C 871.98 491.42 885.81 491.69 890.27 484.79
  Q 892.08 481.99 892.07 478.50
  Q 891.96 441.00 892.07 402.78
  Q 892.07 401.94 892.91 401.92
  Q 911.41 401.61 930.28 401.88
  C 941.82 402.04 953.75 404.40 961.16 413.59
  C 964.81 418.11 967.67 423.73 970.64 429.25
  Q 984.11 454.35 997.50 479.50
  C 1001.07 486.22 1005.46 490.37 1013.58 489.47
  Q 1018.37 488.94 1020.41 485.42
  C 1023.82 479.52 1020.20 473.24 1017.33 467.90
  Q 1003.38 441.94 989.10 416.17
  Q 982.75 404.72 970.51 399.06
  Q 969.94 398.80 970.55 398.67
  Z
  M 1766.86 398.50
  C 1770.75 397.84 1774.15 396.10 1778.12 395.10
  Q 1779.26 394.81 1780.04 394.40
  Q 1782.59 393.04 1785.10 391.70
  Q 1797.89 384.86 1804.94 373.02
  C 1812.79 359.85 1814.20 341.88 1810.71 326.99
  C 1803.42 295.83 1775.59 284.61 1746.25 284.55
  Q 1693.27 284.46 1675.14 284.65
  C 1665.34 284.75 1664.34 292.82 1664.34 300.50
  Q 1664.39 387.88 1664.35 475.25
  C 1664.35 485.40 1669.84 492.28 1680.77 489.02
  C 1687.45 487.03 1688.24 482.14 1688.22 475.45
  Q 1688.09 438.98 1687.98 402.49
  A 0.64 0.63 -0.5 0 1 1688.61 401.86
  Q 1708.65 401.68 1728.81 401.97
  C 1737.35 402.09 1745.65 403.84 1752.04 408.69
  C 1760.70 415.26 1764.97 426.45 1770.20 435.95
  Q 1782.60 458.47 1794.55 481.23
  Q 1799.56 490.78 1810.50 489.14
  C 1816.01 488.31 1818.81 483.08 1817.64 477.89
  Q 1817.14 475.66 1814.94 471.47
  Q 1802.64 448.11 1790.24 424.81
  C 1784.67 414.35 1778.03 404.10 1766.78 399.24
  Q 1765.57 398.72 1766.86 398.50
  Z
  M 1069.99 422.54
  Q 1115.66 422.51 1162.20 422.79
  C 1166.93 422.82 1173.46 421.22 1173.83 415.51
  C 1175.78 385.83 1161.84 355.05 1131.00 347.09
  C 1108.74 341.34 1084.16 346.69 1067.05 362.88
  Q 1065.28 364.56 1063.34 367.00
  C 1060.45 370.66 1057.34 374.30 1055.30 378.23
  C 1046.26 395.62 1043.86 416.45 1047.41 435.28
  C 1056.24 482.09 1100.75 498.06 1142.75 486.52
  C 1151.93 484.00 1177.66 474.35 1170.18 461.61
  C 1167.87 457.68 1164.26 456.34 1160.02 458.06
  C 1154.17 460.43 1150.47 463.94 1145.05 466.05
  C 1130.53 471.71 1112.49 473.56 1097.80 468.18
  Q 1078.21 461.00 1071.96 440.66
  Q 1069.80 433.62 1068.73 423.96
  Q 1068.57 422.54 1069.99 422.54
  Z
  M 1224.52 399.21
  C 1226.35 389.16 1231.62 380.16 1238.73 373.71
  C 1251.37 362.24 1272.73 361.86 1287.42 368.00
  C 1291.70 369.79 1296.39 372.91 1300.70 375.52
  C 1305.75 378.57 1311.01 374.76 1312.51 369.73
  Q 1314.25 363.87 1309.93 359.83
  Q 1303.11 353.47 1291.75 349.52
  Q 1262.41 339.32 1234.38 351.78
  C 1232.14 352.77 1229.90 354.40 1227.58 355.63
  Q 1224.43 357.30 1222.68 358.80
  C 1204.97 373.96 1198.63 395.00 1199.06 417.99
  C 1199.84 460.44 1223.34 490.24 1267.80 490.02
  C 1282.66 489.95 1297.69 484.61 1309.28 475.32
  C 1312.63 472.63 1312.68 466.11 1310.75 462.65
  C 1306.58 455.16 1298.79 460.19 1293.18 463.86
  C 1282.08 471.12 1269.16 472.49 1256.27 469.68
  C 1224.32 462.73 1219.76 425.28 1224.52 399.21
  Z
  M 1460.06 440.50
  C 1465.31 420.06 1463.63 395.51 1453.19 376.82
  Q 1440.41 353.95 1414.74 347.25
  C 1396.69 342.54 1374.39 344.85 1358.50 355.34
  C 1339.09 368.16 1330.42 389.94 1329.39 413.01
  C 1327.98 444.49 1340.31 475.29 1372.09 486.23
  C 1384.41 490.48 1398.99 491.26 1411.76 488.51
  C 1437.53 482.95 1453.70 465.29 1460.06 440.50
  Z
  M 1520.82 370.00
  Q 1520.55 362.44 1520.20 354.89
  C 1519.61 341.86 1497.99 342.14 1497.94 356.00
  Q 1497.71 414.04 1497.76 472.07
  Q 1497.76 480.15 1499.00 483.26
  C 1503.32 494.07 1521.32 490.87 1521.31 478.75
  Q 1521.25 424.30 1521.41 405.50
  C 1521.50 396.42 1524.24 386.10 1529.96 378.95
  C 1533.20 374.90 1538.34 369.83 1543.46 368.04
  C 1544.95 367.52 1545.45 366.46 1547.16 366.14
  C 1554.58 364.76 1561.93 363.64 1569.49 364.50
  C 1587.01 366.50 1594.54 379.55 1594.80 395.75
  Q 1595.23 422.20 1595.16 477.25
  C 1595.15 484.13 1598.90 489.79 1606.25 489.77
  C 1616.64 489.74 1618.81 483.05 1618.76 474.25
  Q 1618.54 435.62 1618.30 397.01
  C 1618.14 369.60 1605.79 347.82 1576.03 345.14
  C 1559.09 343.61 1542.80 347.60 1529.59 359.31
  C 1528.34 360.41 1527.59 361.97 1526.37 363.21
  C 1524.20 365.42 1523.06 367.83 1521.18 370.12
  Q 1520.84 370.54 1520.82 370.00
  Z
  M 1940.56 464.81
  Q 1940.48 470.73 1940.54 477.25
  C 1940.62 485.00 1945.46 490.60 1953.77 489.48
  C 1961.38 488.46 1962.61 482.39 1962.64 475.36
  Q 1962.87 425.39 1962.21 391.50
  C 1961.98 379.62 1957.43 366.36 1948.86 357.83
  C 1939.71 348.72 1925.46 345.29 1912.48 345.02
  Q 1887.17 344.51 1864.57 355.12
  Q 1857.93 358.24 1855.80 361.18
  C 1852.63 365.54 1854.86 375.92 1861.73 376.46
  C 1865.17 376.73 1870.64 373.53 1874.00 371.95
  C 1892.24 363.43 1929.10 354.95 1938.11 381.59
  C 1940.61 388.97 1940.05 397.84 1940.01 405.42
  Q 1940.01 406.20 1939.23 406.20
  Q 1923.94 406.24 1910.30 406.82
  C 1896.86 407.39 1885.76 408.96 1873.54 412.34
  C 1865.27 414.63 1854.79 420.02 1850.99 428.24
  C 1844.07 443.25 1845.82 459.91 1856.18 472.62
  C 1876.60 497.68 1925.48 496.54 1939.96 464.67
  Q 1940.58 463.31 1940.56 464.81
  Z
  M 2056.03 365.17
  C 2068.96 362.83 2083.30 364.51 2094.21 373.08
  C 2096.87 375.17 2101.80 377.40 2105.21 376.01
  C 2109.71 374.18 2112.18 368.23 2110.61 363.86
  Q 2109.69 361.33 2106.02 358.39
  C 2088.66 344.47 2062.78 342.18 2042.26 348.23
  C 2033.50 350.82 2026.48 354.06 2020.05 359.87
  C 2017.40 362.27 2014.59 364.51 2012.49 367.46
  Q 2011.15 369.35 2009.79 371.22
  Q 2002.51 381.23 1999.76 393.30
  Q 1994.08 418.23 2000.43 442.48
  C 2009.44 476.87 2040.19 493.99 2074.34 489.62
  C 2079.31 488.98 2084.61 487.12 2089.71 485.68
  Q 2095.48 484.06 2103.76 477.76
  C 2107.06 475.26 2109.72 473.96 2110.31 469.61
  C 2111.12 463.68 2105.99 456.07 2099.19 459.39
  C 2093.84 462.00 2089.52 465.44 2083.49 467.85
  C 2072.27 472.34 2057.91 472.01 2047.30 467.44
  C 2022.10 456.58 2018.14 424.27 2022.42 401.02
  C 2025.38 384.94 2033.50 372.21 2049.41 366.36
  C 2051.51 365.59 2053.78 365.57 2056.03 365.17
  Z
  M 2217.60 369.00
  Q 2223.15 371.74 2228.36 375.09
  C 2233.54 378.40 2238.89 375.60 2240.79 370.27
  C 2243.56 362.48 2236.90 358.05 2230.43 354.35
  C 2209.63 342.42 2183.69 342.12 2162.37 352.04
  C 2157.21 354.45 2151.00 358.54 2147.12 362.53
  C 2126.88 383.35 2123.51 414.65 2130.54 441.75
  C 2136.54 464.88 2152.78 482.36 2176.25 487.96
  Q 2198.09 493.18 2219.78 485.52
  C 2227.45 482.81 2231.50 479.48 2237.22 475.28
  C 2241.11 472.43 2240.70 469.70 2239.95 465.24
  C 2238.90 459.02 2232.98 457.30 2227.85 460.26
  C 2224.04 462.46 2220.21 465.10 2216.43 466.82
  Q 2211.49 469.08 2209.25 469.46
  C 2204.80 470.23 2200.28 471.26 2195.88 471.06
  C 2180.53 470.34 2168.51 465.48 2160.11 452.05
  C 2150.73 437.05 2149.91 417.28 2152.85 400.26
  C 2155.30 386.06 2162.66 374.79 2175.33 368.23
  Q 2179.33 366.15 2184.54 365.30
  C 2196.39 363.37 2206.68 363.60 2217.60 369.00
  Z
  M 2267.48 459.30
  C 2285.88 491.65 2330.58 498.46 2360.92 480.07
  C 2389.38 462.83 2395.63 424.79 2388.50 394.77
  C 2381.91 367.01 2361.98 349.20 2334.22 345.55
  C 2320.06 343.69 2304.34 345.76 2291.60 352.66
  C 2271.96 363.29 2261.21 382.22 2258.54 404.26
  C 2256.30 422.74 2258.31 443.17 2267.48 459.30
  Z
  M 2536.55 369.23
  C 2519.26 346.41 2488.51 340.22 2461.95 348.33
  Q 2450.39 351.86 2444.05 357.30
  C 2440.97 359.95 2437.12 362.64 2434.79 365.97
  C 2432.74 368.90 2430.01 371.52 2428.42 374.25
  C 2416.98 393.88 2415.01 418.79 2420.34 440.46
  C 2429.55 477.93 2460.01 493.75 2497.37 489.11
  C 2500.46 488.73 2503.55 487.57 2506.61 486.62
  C 2530.71 479.14 2545.10 459.81 2549.53 435.50
  C 2553.63 413.01 2550.40 387.50 2536.55 369.23
  Z
  M 2609.59 370.22
  Q 2608.82 371.41 2608.77 369.99
  Q 2608.55 363.77 2608.57 357.75
  C 2608.58 349.15 2605.43 345.46 2596.48 345.76
  C 2587.43 346.05 2586.22 351.87 2586.21 359.92
  Q 2586.16 418.83 2586.43 477.75
  Q 2586.48 490.26 2598.99 489.33
  Q 2609.67 488.52 2609.64 478.14
  Q 2609.55 443.79 2609.72 409.43
  Q 2609.76 399.16 2611.17 393.70
  C 2613.63 384.20 2618.57 376.99 2626.52 370.90
  C 2629.52 368.61 2634.86 366.30 2638.53 365.62
  C 2646.63 364.11 2652.73 363.62 2661.01 364.99
  C 2677.56 367.74 2683.31 383.09 2683.34 398.00
  Q 2683.43 437.32 2683.49 476.64
  Q 2683.50 481.54 2684.56 483.69
  C 2688.55 491.79 2702.40 491.72 2705.78 483.60
  Q 2706.76 481.24 2706.80 473.78
  Q 2706.96 435.77 2706.93 397.75
  Q 2706.91 381.09 2700.74 368.25
  C 2688.48 342.76 2654.46 340.45 2631.35 350.25
  C 2628.36 351.52 2625.50 353.61 2622.72 355.47
  C 2617.14 359.19 2613.12 364.79 2609.59 370.22
  Z"
/>
<path d="
  M 944.50 304.37
  C 961.82 304.54 983.78 307.61 990.07 327.02
  C 990.89 329.54 991.83 331.90 992.23 334.45
  C 994.16 346.72 992.90 362.06 983.13 371.05
  C 981.75 372.32 980.57 373.71 979.05 374.71
  C 969.94 380.70 959.51 382.61 948.75 382.73
  Q 920.63 383.03 892.53 383.03
  A 0.53 0.53 0.0 0 1 892.00 382.50
  L 892.00 304.72
  A 0.49 0.49 0.0 0 1 892.49 304.23
  Q 918.54 304.12 944.50 304.37
  Z"
/>
<path d="
  M 1776.99 313.99
  C 1792.40 326.09 1792.75 355.35 1780.40 369.68
  C 1772.24 379.15 1757.18 382.85 1744.75 382.92
  Q 1716.63 383.06 1688.82 382.99
  A 0.75 0.74 -0.0 0 1 1688.07 382.25
  L 1688.07 304.75
  A 0.52 0.52 0.0 0 1 1688.59 304.23
  Q 1716.01 304.11 1743.50 304.40
  C 1755.09 304.53 1767.74 306.73 1776.99 313.99
  Z"
/>
<path d="
  M 1133.32 366.67
  C 1147.37 373.61 1153.71 391.74 1153.52 406.59
  Q 1153.51 407.10 1153.00 407.10
  L 1069.50 407.10
  A 0.44 0.43 -87.0 0 1 1069.07 406.61
  C 1071.01 389.79 1078.35 372.35 1095.80 365.58
  C 1099.60 364.10 1103.00 362.97 1107.19 362.74
  C 1117.06 362.21 1124.62 362.38 1133.32 366.67
  Z"
/>
<path d="
  M 1377.20 467.33
  C 1349.87 454.70 1349.91 412.97 1357.41 389.34
  Q 1357.67 388.53 1358.66 387.01
  C 1359.38 385.90 1359.54 384.72 1360.13 383.71
  C 1363.92 377.12 1369.26 371.78 1376.03 368.29
  C 1377.71 367.43 1378.96 366.40 1380.84 366.02
  Q 1385.05 365.17 1389.27 364.50
  Q 1405.85 361.86 1419.66 370.34
  C 1429.79 376.55 1436.06 390.17 1437.82 400.99
  C 1440.94 420.21 1439.54 445.53 1424.73 460.25
  C 1412.70 472.21 1392.52 474.41 1377.20 467.33
  Z"
/>
<path d="
  M 2321.50 363.97
  C 2337.18 362.94 2351.12 369.07 2359.49 382.53
  C 2368.61 397.17 2368.51 417.88 2365.84 434.61
  Q 2364.97 440.03 2363.60 443.74
  C 2349.09 482.97 2293.74 480.14 2284.10 439.22
  Q 2279.10 418.02 2283.56 396.78
  C 2283.93 395.03 2284.89 392.92 2285.40 390.92
  C 2287.47 382.90 2293.63 375.13 2300.41 370.46
  C 2307.17 365.81 2312.59 364.55 2321.50 363.97
  Z"
/>
<path d="
  M 2502.34 367.38
  C 2525.14 377.89 2528.91 403.75 2527.02 426.25
  C 2525.47 444.62 2518.17 461.05 2500.34 468.60
  C 2496.84 470.08 2492.87 470.43 2489.00 471.07
  Q 2483.44 472.01 2474.98 470.39
  C 2442.67 464.20 2437.96 426.17 2442.90 400.01
  C 2444.00 394.18 2445.98 388.81 2448.60 383.59
  C 2451.60 377.64 2455.17 374.57 2459.91 370.84
  C 2470.78 362.27 2490.26 361.81 2502.34 367.38
  Z"
/>
<path d="
  M 1935.57 451.09
  C 1933.41 455.92 1929.88 459.79 1925.90 463.45
  Q 1916.94 471.66 1903.99 472.21
  C 1893.50 472.64 1883.66 470.71 1876.62 462.68
  C 1870.60 455.79 1868.88 446.41 1871.62 437.67
  C 1873.09 432.98 1876.13 430.05 1880.30 427.76
  Q 1882.11 426.76 1885.96 425.84
  C 1888.58 425.21 1891.13 424.29 1893.74 423.94
  Q 1916.47 420.95 1939.40 421.81
  Q 1939.89 421.83 1939.92 422.32
  C 1940.54 432.50 1939.77 441.71 1935.57 451.09
  Z"
/>
<path d="
  M 378.31 463.46
  C 382.85 471.70 393.76 472.99 401.36 468.56
  C 407.40 465.03 411.39 457.77 407.58 451.16
  C 404.84 446.41 401.24 442.62 394.62 441.41
  A 1.34 1.33 13.1 0 1 393.57 439.73
  L 393.71 439.28
  Q 394.22 437.51 396.06 437.59
  C 403.87 437.96 411.86 441.03 414.43 448.01
  Q 414.97 449.47 415.42 453.16
  C 416.90 465.21 407.52 475.75 396.19 477.81
  C 387.65 479.36 380.02 475.84 373.22 470.37
  Q 371.33 468.85 370.83 466.91
  C 369.82 462.98 371.16 457.38 372.68 453.67
  C 374.58 449.01 375.86 443.89 380.28 442.32
  Q 380.76 442.15 381.23 442.31
  C 386.07 443.95 386.53 450.64 384.66 454.30
  C 383.53 456.52 381.28 458.24 379.24 459.62
  A 2.93 2.91 -31.5 0 0 378.31 463.46
  Z"
/>
<path d="
  M 249.09 461.99
  C 250.04 470.92 261.85 472.69 268.65 469.76
  C 270.23 469.08 271.88 469.30 272.30 471.08
  Q 272.42 471.62 272.07 472.04
  C 265.13 480.38 251.78 482.07 243.53 475.43
  C 234.70 468.33 233.98 455.32 242.67 447.70
  Q 250.21 441.10 261.10 444.24
  Q 261.60 444.38 261.78 444.88
  Q 262.27 446.27 261.42 447.46
  Q 261.13 447.87 260.63 447.93
  Q 256.57 448.38 253.52 451.19
  Q 253.14 451.53 253.25 452.03
  C 253.44 452.97 254.21 453.74 254.42 454.55
  C 255.51 458.82 252.99 460.15 249.55 461.28
  Q 249.03 461.45 249.09 461.99
  Z"
/>
<path d="
  M 293.81 609.42
  C 299.67 611.19 295.50 627.36 286.75 623.00
  C 284.82 622.04 282.78 619.78 280.66 618.26
  Q 280.25 617.96 280.20 617.46
  C 279.50 610.30 288.28 607.74 293.81 609.42
  Z"
/>
</g>
<g fill="#2b2a2a">
<path d="
  M 392.00 406.21
  L 394.70 405.90
  C 401.93 409.02 395.43 419.61 406.25 420.81
  C 415.27 421.80 424.03 423.13 433.26 423.88
  C 445.31 424.86 457.13 428.04 469.01 430.24
  Q 471.06 430.61 476.50 432.55
  C 494.27 438.86 510.96 447.03 528.11 454.78
  Q 545.62 462.69 556.75 464.95
  C 572.86 468.20 584.67 470.79 597.69 471.32
  Q 598.18 471.34 598.20 471.81
  A 0.65 0.64 -9.2 0 1 597.73 472.45
  Q 591.00 474.26 585.02 477.82
  Q 583.69 478.62 585.23 478.77
  C 600.47 480.25 615.65 478.71 630.72 475.69
  Q 639.94 473.84 648.91 472.34
  Q 649.54 472.24 649.20 471.70
  Q 646.30 467.05 643.10 462.94
  Q 636.95 455.04 630.88 447.07
  Q 628.55 444.02 626.08 441.08
  C 622.34 436.62 617.58 432.27 613.47 427.76
  C 607.60 421.31 601.10 416.26 595.30 409.96
  C 592.08 406.45 592.92 402.77 594.13 398.91
  Q 594.32 398.30 593.70 398.15
  Q 572.04 392.71 552.35 382.53
  C 542.76 377.57 530.00 369.12 519.56 363.46
  C 505.88 356.04 490.96 350.80 475.00 351.08
  A 0.61 0.61 0.0 0 1 474.43 350.21
  Q 477.83 342.98 480.90 335.61
  Q 482.76 331.16 484.66 328.13
  C 487.59 323.45 490.93 320.13 493.76 316.30
  Q 495.21 314.35 496.01 313.42
  C 503.86 304.33 510.98 294.51 518.11 284.85
  Q 526.62 273.32 534.11 261.10
  Q 538.80 253.43 541.51 244.90
  Q 541.66 244.42 542.08 244.17
  Q 557.56 234.77 570.44 222.01
  Q 571.23 221.23 573.71 219.16
  C 575.19 217.92 576.66 216.16 577.83 215.04
  Q 585.12 208.09 592.46 201.21
  C 600.16 193.98 611.18 188.39 621.59 189.27
  Q 630.26 190.01 636.55 196.22
  C 649.81 209.32 654.90 225.62 656.44 244.00
  C 657.79 260.12 655.69 280.04 646.14 292.57
  C 644.20 295.11 641.20 297.74 638.75 300.46
  C 635.80 303.70 632.70 305.54 630.34 309.50
  C 627.56 314.14 626.80 322.59 628.08 327.71
  Q 628.45 329.19 630.01 332.52
  C 632.32 337.46 632.58 342.63 633.26 347.75
  C 633.93 352.80 637.03 356.50 641.52 360.84
  C 645.35 364.52 647.86 369.20 652.26 372.73
  A 0.43 0.43 0.0 0 1 652.13 373.47
  L 641.99 377.03
  A 1.93 1.92 -27.8 0 0 641.07 379.99
  Q 647.06 388.09 654.97 394.20
  C 662.58 400.07 667.11 403.80 672.93 409.06
  Q 675.44 411.33 677.36 413.92
  A 0.43 0.43 0.0 0 1 677.16 414.58
  C 674.24 415.59 657.86 420.13 663.30 425.95
  Q 670.15 433.27 675.00 439.08
  C 684.85 450.86 694.87 462.49 704.70 474.30
  Q 709.29 479.82 714.42 484.84
  Q 715.86 486.25 716.38 488.26
  A 1.01 1.00 -13.0 0 1 715.60 489.50
  Q 702.94 492.05 690.26 495.38
  C 688.76 495.77 687.29 496.45 685.90 496.82
  C 674.41 499.84 663.35 503.54 651.79 506.97
  C 647.04 508.39 638.74 510.39 636.31 513.40
  Q 636.02 513.76 636.33 514.11
  L 640.63 518.76
  A 1.52 1.52 0.0 0 1 639.90 521.26
  C 634.02 522.80 628.57 525.47 622.74 527.26
  C 610.11 531.14 597.61 535.04 585.19 539.56
  C 573.91 543.65 563.47 542.84 548.69 542.81
  C 538.25 542.79 528.25 543.72 518.00 544.54
  Q 512.33 545.00 495.57 549.19
  Q 490.39 550.49 483.63 552.95
  C 477.08 555.34 470.23 557.02 463.98 560.09
  C 460.75 561.68 456.93 563.76 453.76 564.50
  Q 445.13 566.52 438.60 560.37
  Q 431.43 553.61 423.46 551.06
  Q 421.39 550.41 414.47 550.58
  A 0.87 0.87 0.0 0 1 413.68 550.11
  C 407.45 537.90 396.15 529.80 386.99 522.23
  Q 386.63 521.93 386.16 521.87
  C 382.77 521.43 379.76 525.82 376.93 527.58
  Q 376.06 528.13 375.63 527.20
  Q 371.92 519.20 367.52 511.63
  C 365.47 508.10 361.65 503.24 358.29 500.86
  C 348.34 493.84 333.92 497.47 324.20 502.93
  Q 315.11 508.02 305.68 512.99
  A 0.99 0.99 0.0 0 1 304.25 512.34
  L 301.12 499.14
  A 0.64 0.63 82.6 0 0 300.49 498.65
  L 281.65 498.82
  Q 281.06 498.83 280.95 499.40
  C 279.14 508.58 272.93 519.08 263.45 521.98
  Q 262.91 522.15 262.62 522.63
  L 241.29 559.19
  Q 241.00 559.69 240.86 559.13
  Q 239.80 554.83 239.66 550.45
  Q 239.60 548.50 238.64 550.20
  C 236.27 554.39 234.76 559.12 232.38 563.58
  Q 232.13 564.06 232.60 564.34
  Q 237.18 567.10 239.80 571.73
  A 0.93 0.93 0.0 0 1 238.95 573.11
  Q 229.44 572.66 219.72 572.19
  C 214.18 571.92 205.80 572.23 198.82 571.40
  Q 194.67 570.92 192.68 570.88
  C 187.84 570.79 184.16 571.63 179.27 569.99
  A 1.34 1.33 31.5 0 1 178.74 567.79
  Q 182.94 563.55 187.89 559.36
  Q 188.88 558.52 189.01 558.32
  Q 189.92 556.97 188.38 556.45
  C 180.64 553.82 173.36 551.18 165.36 549.54
  Q 149.69 546.33 134.19 542.96
  A 1.71 1.70 78.9 0 1 133.11 542.23
  Q 132.07 540.68 133.61 539.87
  Q 135.45 538.90 137.15 538.27
  A 1.65 1.64 76.3 0 0 138.21 536.51
  Q 138.15 536.05 137.25 535.77
  Q 128.84 533.13 120.18 531.38
  C 119.63 531.27 119.12 530.83 118.52 530.68
  C 102.52 526.69 91.27 522.80 77.34 519.31
  A 0.69 0.68 22.7 0 1 76.92 518.30
  Q 77.23 517.79 77.67 517.10
  C 87.13 502.46 97.26 488.31 106.58 473.57
  C 107.30 472.42 108.32 471.40 108.99 470.37
  C 115.92 459.87 123.05 450.35 130.34 439.21
  C 135.92 430.68 140.09 424.82 147.14 413.66
  Q 151.62 406.57 157.05 393.50
  Q 157.22 393.09 156.79 391.82
  Q 155.91 389.26 155.26 386.64
  C 153.53 379.65 150.93 373.49 146.93 367.58
  A 1.74 1.74 0.0 0 1 148.27 364.87
  C 153.41 364.58 156.53 365.00 160.78 361.79
  A 0.40 0.40 0.0 0 0 160.75 361.13
  C 152.55 355.84 143.72 349.49 137.17 342.27
  C 133.47 338.19 129.25 333.53 127.16 329.84
  Q 113.31 305.33 116.46 276.24
  Q 118.14 260.75 129.30 251.58
  C 134.69 247.14 143.08 244.40 150.00 245.32
  Q 152.75 245.69 160.04 248.43
  C 168.85 251.75 177.62 256.33 186.47 260.07
  Q 195.00 263.67 207.25 265.22
  C 212.03 265.83 210.80 269.87 209.29 272.96
  Q 206.62 278.43 204.38 284.01
  Q 204.26 284.30 204.00 284.14
  C 198.24 280.74 193.22 278.33 185.96 276.10
  C 179.15 274.00 173.29 271.34 167.00 268.59
  C 159.84 265.46 154.73 264.21 147.51 265.03
  C 139.42 265.94 135.83 270.84 134.14 278.48
  C 130.06 296.86 136.83 319.52 149.72 332.86
  Q 152.90 336.16 160.04 341.25
  Q 169.93 348.30 179.66 355.57
  C 184.99 359.56 190.03 362.18 195.83 364.91
  Q 196.32 365.14 196.50 365.64
  Q 200.85 377.50 207.64 388.11
  A 0.59 0.59 0.0 0 1 207.58 388.83
  Q 171.54 428.35 131.10 463.59
  C 130.58 464.05 128.29 465.33 128.17 465.58
  Q 127.00 468.04 129.56 467.04
  L 134.56 465.09
  Q 136.33 464.39 135.39 466.04
  Q 124.57 484.85 111.32 502.03
  A 0.39 0.38 -58.9 0 0 111.46 502.62
  C 113.81 503.69 115.86 503.76 118.49 503.02
  Q 134.65 498.47 151.59 490.57
  Q 153.41 489.72 154.55 488.77
  A 0.73 0.72 -33.7 0 0 154.73 487.90
  C 152.54 483.39 150.77 475.44 154.34 471.70
  C 156.24 469.72 161.63 467.59 164.30 467.04
  Q 183.19 463.14 199.71 453.59
  Q 205.98 449.97 213.88 443.19
  Q 222.02 436.20 230.07 429.08
  Q 238.20 421.89 249.21 421.38
  C 254.74 421.12 261.98 423.01 268.23 423.75
  C 271.00 424.07 275.82 429.19 277.39 431.43
  C 282.49 438.73 285.05 445.43 286.86 454.52
  Q 288.66 463.55 290.04 471.94
  Q 290.26 473.28 291.09 472.20
  Q 299.56 461.25 300.91 447.98
  Q 302.05 436.77 302.08 425.28
  A 0.86 0.86 0.0 0 1 302.90 424.42
  C 315.96 423.86 328.78 421.59 341.76 419.61
  Q 342.74 419.46 343.33 419.47
  A 0.73 0.72 -83.8 0 1 344.03 420.35
  Q 341.24 433.60 341.75 447.00
  C 342.12 456.64 345.20 470.23 352.11 477.90
  Q 352.58 478.42 352.67 477.73
  Q 353.39 472.44 353.97 467.27
  Q 355.32 455.36 361.20 444.43
  Q 362.53 441.96 364.17 440.41
  Q 373.91 431.23 380.96 423.99
  C 386.12 418.68 382.99 408.60 392.00 406.21
  Z
  M 583.55 230.29
  C 580.79 232.76 577.85 235.13 575.27 237.71
  Q 565.52 247.44 561.73 250.21
  C 551.18 257.92 543.62 266.17 539.49 278.60
  A 0.37 0.37 0.0 0 0 539.95 279.07
  C 548.74 276.47 558.93 272.01 565.68 265.54
  C 568.79 262.56 571.32 259.20 574.35 256.18
  Q 575.73 254.80 577.24 252.92
  C 578.91 250.85 581.18 248.88 582.73 247.16
  Q 587.27 242.15 592.04 237.34
  C 598.80 230.54 609.12 228.63 616.59 234.92
  C 620.22 237.98 621.55 245.03 621.92 249.51
  C 623.03 262.65 620.77 280.72 610.21 289.97
  C 605.81 293.82 600.56 297.87 596.99 302.48
  Q 595.25 304.73 593.61 307.06
  Q 585.96 317.97 579.26 331.91
  Q 578.71 333.06 579.98 333.15
  Q 587.89 333.72 595.48 331.67
  A 0.68 0.68 0.0 0 1 596.33 332.41
  C 596.03 335.00 592.91 338.94 591.41 340.92
  Q 590.63 341.95 591.89 341.69
  C 600.98 339.86 609.22 331.59 610.73 322.50
  C 611.32 318.95 611.14 313.95 612.21 310.22
  C 614.08 303.68 618.89 297.13 623.98 292.64
  C 633.51 284.22 639.85 275.65 640.26 262.50
  Q 640.77 246.16 636.42 229.62
  Q 634.49 222.27 631.83 218.36
  C 626.47 210.53 616.43 205.31 607.47 210.99
  C 604.02 213.18 600.73 215.10 597.61 217.85
  Q 594.65 220.48 591.64 223.05
  C 590.31 224.18 588.94 225.90 587.27 227.07
  C 585.82 228.09 584.79 229.18 583.55 230.29
  Z
  M 378.31 463.46
  A 2.93 2.91 -31.5 0 1 379.24 459.62
  C 381.28 458.24 383.53 456.52 384.66 454.30
  C 386.53 450.64 386.07 443.95 381.23 442.31
  Q 380.76 442.15 380.28 442.32
  C 375.86 443.89 374.58 449.01 372.68 453.67
  C 371.16 457.38 369.82 462.98 370.83 466.91
  Q 371.33 468.85 373.22 470.37
  C 380.02 475.84 387.65 479.36 396.19 477.81
  C 407.52 475.75 416.90 465.21 415.42 453.16
  Q 414.97 449.47 414.43 448.01
  C 411.86 441.03 403.87 437.96 396.06 437.59
  Q 394.22 437.51 393.71 439.28
  L 393.57 439.73
  A 1.34 1.33 13.1 0 0 394.62 441.41
  C 401.24 442.62 404.84 446.41 407.58 451.16
  C 411.39 457.77 407.40 465.03 401.36 468.56
  C 393.76 472.99 382.85 471.70 378.31 463.46
  Z
  M 249.55 461.28
  C 252.99 460.15 255.51 458.82 254.42 454.55
  C 254.21 453.74 253.44 452.97 253.25 452.03
  Q 253.14 451.53 253.52 451.19
  Q 256.57 448.38 260.63 447.93
  Q 261.13 447.87 261.42 447.46
  Q 262.27 446.27 261.78 444.88
  Q 261.60 444.38 261.10 444.24
  Q 250.21 441.10 242.67 447.70
  C 233.98 455.32 234.70 468.33 243.53 475.43
  C 251.78 482.07 265.13 480.38 272.07 472.04
  Q 272.42 471.62 272.30 471.08
  C 271.88 469.30 270.23 469.08 268.65 469.76
  C 261.85 472.69 250.04 470.92 249.09 461.99
  Q 249.03 461.45 249.55 461.28
  Z"
/>
<path d="
  M 173.61 283.18
  C 183.14 284.80 192.44 289.74 200.78 292.37
  A 0.95 0.94 16.8 0 1 201.41 293.53
  Q 199.79 299.18 198.04 305.05
  Q 192.31 324.27 194.47 343.91
  A 0.43 0.42 -80.1 0 1 193.86 344.34
  Q 181.32 338.21 170.38 330.13
  Q 163.00 324.68 158.98 314.28
  C 153.85 301.01 150.52 279.25 173.61 283.18
  Z"
/>
<path d="
  M 970.51 399.06
  Q 982.75 404.72 989.10 416.17
  Q 1003.38 441.94 1017.33 467.90
  C 1020.20 473.24 1023.82 479.52 1020.41 485.42
  Q 1018.37 488.94 1013.58 489.47
  C 1005.46 490.37 1001.07 486.22 997.50 479.50
  Q 984.11 454.35 970.64 429.25
  C 967.67 423.73 964.81 418.11 961.16 413.59
  C 953.75 404.40 941.82 402.04 930.28 401.88
  Q 911.41 401.61 892.91 401.92
  Q 892.07 401.94 892.07 402.78
  Q 891.96 441.00 892.07 478.50
  Q 892.08 481.99 890.27 484.79
  C 885.81 491.69 871.98 491.42 869.16 483.12
  Q 868.49 481.16 868.47 475.30
  Q 868.24 386.03 868.30 296.75
  Q 868.31 284.73 880.14 284.63
  Q 927.64 284.20 954.50 284.62
  C 981.83 285.05 1008.53 298.60 1014.70 327.00
  C 1018.03 342.34 1016.85 359.66 1008.95 373.00
  C 1004.84 379.92 998.91 386.14 992.17 390.15
  Q 990.30 391.26 982.91 394.90
  Q 982.10 395.30 981.02 395.60
  C 977.48 396.58 974.12 397.86 970.55 398.67
  Q 969.94 398.80 970.51 399.06
  Z
  M 990.07 327.02
  C 983.78 307.61 961.82 304.54 944.50 304.37
  Q 918.54 304.12 892.49 304.23
  A 0.49 0.49 0.0 0 0 892.00 304.72
  L 892.00 382.50
  A 0.53 0.53 0.0 0 0 892.53 383.03
  Q 920.63 383.03 948.75 382.73
  C 959.51 382.61 969.94 380.70 979.05 374.71
  C 980.57 373.71 981.75 372.32 983.13 371.05
  C 992.90 362.06 994.16 346.72 992.23 334.45
  C 991.83 331.90 990.89 329.54 990.07 327.02
  Z"
/>
<path d="
  M 1766.86 398.50
  Q 1765.57 398.72 1766.78 399.24
  C 1778.03 404.10 1784.67 414.35 1790.24 424.81
  Q 1802.64 448.11 1814.94 471.47
  Q 1817.14 475.66 1817.64 477.89
  C 1818.81 483.08 1816.01 488.31 1810.50 489.14
  Q 1799.56 490.78 1794.55 481.23
  Q 1782.60 458.47 1770.20 435.95
  C 1764.97 426.45 1760.70 415.26 1752.04 408.69
  C 1745.65 403.84 1737.35 402.09 1728.81 401.97
  Q 1708.65 401.68 1688.61 401.86
  A 0.64 0.63 -0.5 0 0 1687.98 402.49
  Q 1688.09 438.98 1688.22 475.45
  C 1688.24 482.14 1687.45 487.03 1680.77 489.02
  C 1669.84 492.28 1664.35 485.40 1664.35 475.25
  Q 1664.39 387.88 1664.34 300.50
  C 1664.34 292.82 1665.34 284.75 1675.14 284.65
  Q 1693.27 284.46 1746.25 284.55
  C 1775.59 284.61 1803.42 295.83 1810.71 326.99
  C 1814.20 341.88 1812.79 359.85 1804.94 373.02
  Q 1797.89 384.86 1785.10 391.70
  Q 1782.59 393.04 1780.04 394.40
  Q 1779.26 394.81 1778.12 395.10
  C 1774.15 396.10 1770.75 397.84 1766.86 398.50
  Z
  M 1780.40 369.68
  C 1792.75 355.35 1792.40 326.09 1776.99 313.99
  C 1767.74 306.73 1755.09 304.53 1743.50 304.40
  Q 1716.01 304.11 1688.59 304.23
  A 0.52 0.52 0.0 0 0 1688.07 304.75
  L 1688.07 382.25
  A 0.75 0.74 -0.0 0 0 1688.82 382.99
  Q 1716.63 383.06 1744.75 382.92
  C 1757.18 382.85 1772.24 379.15 1780.40 369.68
  Z"
/>
<path d="
  M 1069.99 422.54
  Q 1068.57 422.54 1068.73 423.96
  Q 1069.80 433.62 1071.96 440.66
  Q 1078.21 461.00 1097.80 468.18
  C 1112.49 473.56 1130.53 471.71 1145.05 466.05
  C 1150.47 463.94 1154.17 460.43 1160.02 458.06
  C 1164.26 456.34 1167.87 457.68 1170.18 461.61
  C 1177.66 474.35 1151.93 484.00 1142.75 486.52
  C 1100.75 498.06 1056.24 482.09 1047.41 435.28
  C 1043.86 416.45 1046.26 395.62 1055.30 378.23
  C 1057.34 374.30 1060.45 370.66 1063.34 367.00
  Q 1065.28 364.56 1067.05 362.88
  C 1084.16 346.69 1108.74 341.34 1131.00 347.09
  C 1161.84 355.05 1175.78 385.83 1173.83 415.51
  C 1173.46 421.22 1166.93 422.82 1162.20 422.79
  Q 1115.66 422.51 1069.99 422.54
  Z
  M 1133.32 366.67
  C 1124.62 362.38 1117.06 362.21 1107.19 362.74
  C 1103.00 362.97 1099.60 364.10 1095.80 365.58
  C 1078.35 372.35 1071.01 389.79 1069.07 406.61
  A 0.44 0.43 -87.0 0 0 1069.50 407.10
  L 1153.00 407.10
  Q 1153.51 407.10 1153.52 406.59
  C 1153.71 391.74 1147.37 373.61 1133.32 366.67
  Z"
/>
<path d="
  M 1238.73 373.71
  C 1231.62 380.16 1226.35 389.16 1224.52 399.21
  C 1219.76 425.28 1224.32 462.73 1256.27 469.68
  C 1269.16 472.49 1282.08 471.12 1293.18 463.86
  C 1298.79 460.19 1306.58 455.16 1310.75 462.65
  C 1312.68 466.11 1312.63 472.63 1309.28 475.32
  C 1297.69 484.61 1282.66 489.95 1267.80 490.02
  C 1223.34 490.24 1199.84 460.44 1199.06 417.99
  C 1198.63 395.00 1204.97 373.96 1222.68 358.80
  Q 1224.43 357.30 1227.58 355.63
  C 1229.90 354.40 1232.14 352.77 1234.38 351.78
  Q 1262.41 339.32 1291.75 349.52
  Q 1303.11 353.47 1309.93 359.83
  Q 1314.25 363.87 1312.51 369.73
  C 1311.01 374.76 1305.75 378.57 1300.70 375.52
  C 1296.39 372.91 1291.70 369.79 1287.42 368.00
  C 1272.73 361.86 1251.37 362.24 1238.73 373.71
  Z"
/>
<path d="
  M 1460.06 440.50
  C 1453.70 465.29 1437.53 482.95 1411.76 488.51
  C 1398.99 491.26 1384.41 490.48 1372.09 486.23
  C 1340.31 475.29 1327.98 444.49 1329.39 413.01
  C 1330.42 389.94 1339.09 368.16 1358.50 355.34
  C 1374.39 344.85 1396.69 342.54 1414.74 347.25
  Q 1440.41 353.95 1453.19 376.82
  C 1463.63 395.51 1465.31 420.06 1460.06 440.50
  Z
  M 1377.20 467.33
  C 1392.52 474.41 1412.70 472.21 1424.73 460.25
  C 1439.54 445.53 1440.94 420.21 1437.82 400.99
  C 1436.06 390.17 1429.79 376.55 1419.66 370.34
  Q 1405.85 361.86 1389.27 364.50
  Q 1385.05 365.17 1380.84 366.02
  C 1378.96 366.40 1377.71 367.43 1376.03 368.29
  C 1369.26 371.78 1363.92 377.12 1360.13 383.71
  C 1359.54 384.72 1359.38 385.90 1358.66 387.01
  Q 1357.67 388.53 1357.41 389.34
  C 1349.91 412.97 1349.87 454.70 1377.20 467.33
  Z"
/>
<path d="
  M 1521.18 370.12
  C 1523.06 367.83 1524.20 365.42 1526.37 363.21
  C 1527.59 361.97 1528.34 360.41 1529.59 359.31
  C 1542.80 347.60 1559.09 343.61 1576.03 345.14
  C 1605.79 347.82 1618.14 369.60 1618.30 397.01
  Q 1618.54 435.62 1618.76 474.25
  C 1618.81 483.05 1616.64 489.74 1606.25 489.77
  C 1598.90 489.79 1595.15 484.13 1595.16 477.25
  Q 1595.23 422.20 1594.80 395.75
  C 1594.54 379.55 1587.01 366.50 1569.49 364.50
  C 1561.93 363.64 1554.58 364.76 1547.16 366.14
  C 1545.45 366.46 1544.95 367.52 1543.46 368.04
  C 1538.34 369.83 1533.20 374.90 1529.96 378.95
  C 1524.24 386.10 1521.50 396.42 1521.41 405.50
  Q 1521.25 424.30 1521.31 478.75
  C 1521.32 490.87 1503.32 494.07 1499.00 483.26
  Q 1497.76 480.15 1497.76 472.07
  Q 1497.71 414.04 1497.94 356.00
  C 1497.99 342.14 1519.61 341.86 1520.20 354.89
  Q 1520.55 362.44 1520.82 370.00
  Q 1520.84 370.54 1521.18 370.12
  Z"
/>
<path d="
  M 1940.56 464.81
  Q 1940.58 463.31 1939.96 464.67
  C 1925.48 496.54 1876.60 497.68 1856.18 472.62
  C 1845.82 459.91 1844.07 443.25 1850.99 428.24
  C 1854.79 420.02 1865.27 414.63 1873.54 412.34
  C 1885.76 408.96 1896.86 407.39 1910.30 406.82
  Q 1923.94 406.24 1939.23 406.20
  Q 1940.01 406.20 1940.01 405.42
  C 1940.05 397.84 1940.61 388.97 1938.11 381.59
  C 1929.10 354.95 1892.24 363.43 1874.00 371.95
  C 1870.64 373.53 1865.17 376.73 1861.73 376.46
  C 1854.86 375.92 1852.63 365.54 1855.80 361.18
  Q 1857.93 358.24 1864.57 355.12
  Q 1887.17 344.51 1912.48 345.02
  C 1925.46 345.29 1939.71 348.72 1948.86 357.83
  C 1957.43 366.36 1961.98 379.62 1962.21 391.50
  Q 1962.87 425.39 1962.64 475.36
  C 1962.61 482.39 1961.38 488.46 1953.77 489.48
  C 1945.46 490.60 1940.62 485.00 1940.54 477.25
  Q 1940.48 470.73 1940.56 464.81
  Z
  M 1935.57 451.09
  C 1939.77 441.71 1940.54 432.50 1939.92 422.32
  Q 1939.89 421.83 1939.40 421.81
  Q 1916.47 420.95 1893.74 423.94
  C 1891.13 424.29 1888.58 425.21 1885.96 425.84
  Q 1882.11 426.76 1880.30 427.76
  C 1876.13 430.05 1873.09 432.98 1871.62 437.67
  C 1868.88 446.41 1870.60 455.79 1876.62 462.68
  C 1883.66 470.71 1893.50 472.64 1903.99 472.21
  Q 1916.94 471.66 1925.90 463.45
  C 1929.88 459.79 1933.41 455.92 1935.57 451.09
  Z"
/>
<path d="
  M 2094.21 373.08
  C 2083.30 364.51 2068.96 362.83 2056.03 365.17
  C 2053.78 365.57 2051.51 365.59 2049.41 366.36
  C 2033.50 372.21 2025.38 384.94 2022.42 401.02
  C 2018.14 424.27 2022.10 456.58 2047.30 467.44
  C 2057.91 472.01 2072.27 472.34 2083.49 467.85
  C 2089.52 465.44 2093.84 462.00 2099.19 459.39
  C 2105.99 456.07 2111.12 463.68 2110.31 469.61
  C 2109.72 473.96 2107.06 475.26 2103.76 477.76
  Q 2095.48 484.06 2089.71 485.68
  C 2084.61 487.12 2079.31 488.98 2074.34 489.62
  C 2040.19 493.99 2009.44 476.87 2000.43 442.48
  Q 1994.08 418.23 1999.76 393.30
  Q 2002.51 381.23 2009.79 371.22
  Q 2011.15 369.35 2012.49 367.46
  C 2014.59 364.51 2017.40 362.27 2020.05 359.87
  C 2026.48 354.06 2033.50 350.82 2042.26 348.23
  C 2062.78 342.18 2088.66 344.47 2106.02 358.39
  Q 2109.69 361.33 2110.61 363.86
  C 2112.18 368.23 2109.71 374.18 2105.21 376.01
  C 2101.80 377.40 2096.87 375.17 2094.21 373.08
  Z"
/>
<path d="
  M 2217.60 369.00
  C 2206.68 363.60 2196.39 363.37 2184.54 365.30
  Q 2179.33 366.15 2175.33 368.23
  C 2162.66 374.79 2155.30 386.06 2152.85 400.26
  C 2149.91 417.28 2150.73 437.05 2160.11 452.05
  C 2168.51 465.48 2180.53 470.34 2195.88 471.06
  C 2200.28 471.26 2204.80 470.23 2209.25 469.46
  Q 2211.49 469.08 2216.43 466.82
  C 2220.21 465.10 2224.04 462.46 2227.85 460.26
  C 2232.98 457.30 2238.90 459.02 2239.95 465.24
  C 2240.70 469.70 2241.11 472.43 2237.22 475.28
  C 2231.50 479.48 2227.45 482.81 2219.78 485.52
  Q 2198.09 493.18 2176.25 487.96
  C 2152.78 482.36 2136.54 464.88 2130.54 441.75
  C 2123.51 414.65 2126.88 383.35 2147.12 362.53
  C 2151.00 358.54 2157.21 354.45 2162.37 352.04
  C 2183.69 342.12 2209.63 342.42 2230.43 354.35
  C 2236.90 358.05 2243.56 362.48 2240.79 370.27
  C 2238.89 375.60 2233.54 378.40 2228.36 375.09
  Q 2223.15 371.74 2217.60 369.00
  Z"
/>
<path d="
  M 2360.92 480.07
  C 2330.58 498.46 2285.88 491.65 2267.48 459.30
  C 2258.31 443.17 2256.30 422.74 2258.54 404.26
  C 2261.21 382.22 2271.96 363.29 2291.60 352.66
  C 2304.34 345.76 2320.06 343.69 2334.22 345.55
  C 2361.98 349.20 2381.91 367.01 2388.50 394.77
  C 2395.63 424.79 2389.38 462.83 2360.92 480.07
  Z
  M 2359.49 382.53
  C 2351.12 369.07 2337.18 362.94 2321.50 363.97
  C 2312.59 364.55 2307.17 365.81 2300.41 370.46
  C 2293.63 375.13 2287.47 382.90 2285.40 390.92
  C 2284.89 392.92 2283.93 395.03 2283.56 396.78
  Q 2279.10 418.02 2284.10 439.22
  C 2293.74 480.14 2349.09 482.97 2363.60 443.74
  Q 2364.97 440.03 2365.84 434.61
  C 2368.51 417.88 2368.61 397.17 2359.49 382.53
  Z"
/>
<path d="
  M 2461.95 348.33
  C 2488.51 340.22 2519.26 346.41 2536.55 369.23
  C 2550.40 387.50 2553.63 413.01 2549.53 435.50
  C 2545.10 459.81 2530.71 479.14 2506.61 486.62
  C 2503.55 487.57 2500.46 488.73 2497.37 489.11
  C 2460.01 493.75 2429.55 477.93 2420.34 440.46
  C 2415.01 418.79 2416.98 393.88 2428.42 374.25
  C 2430.01 371.52 2432.74 368.90 2434.79 365.97
  C 2437.12 362.64 2440.97 359.95 2444.05 357.30
  Q 2450.39 351.86 2461.95 348.33
  Z
  M 2502.34 367.38
  C 2490.26 361.81 2470.78 362.27 2459.91 370.84
  C 2455.17 374.57 2451.60 377.64 2448.60 383.59
  C 2445.98 388.81 2444.00 394.18 2442.90 400.01
  C 2437.96 426.17 2442.67 464.20 2474.98 470.39
  Q 2483.44 472.01 2489.00 471.07
  C 2492.87 470.43 2496.84 470.08 2500.34 468.60
  C 2518.17 461.05 2525.47 444.62 2527.02 426.25
  C 2528.91 403.75 2525.14 377.89 2502.34 367.38
  Z"
/>
<path d="
  M 2609.59 370.22
  C 2613.12 364.79 2617.14 359.19 2622.72 355.47
  C 2625.50 353.61 2628.36 351.52 2631.35 350.25
  C 2654.46 340.45 2688.48 342.76 2700.74 368.25
  Q 2706.91 381.09 2706.93 397.75
  Q 2706.96 435.77 2706.80 473.78
  Q 2706.76 481.24 2705.78 483.60
  C 2702.40 491.72 2688.55 491.79 2684.56 483.69
  Q 2683.50 481.54 2683.49 476.64
  Q 2683.43 437.32 2683.34 398.00
  C 2683.31 383.09 2677.56 367.74 2661.01 364.99
  C 2652.73 363.62 2646.63 364.11 2638.53 365.62
  C 2634.86 366.30 2629.52 368.61 2626.52 370.90
  C 2618.57 376.99 2613.63 384.20 2611.17 393.70
  Q 2609.76 399.16 2609.72 409.43
  Q 2609.55 443.79 2609.64 478.14
  Q 2609.67 488.52 2598.99 489.33
  Q 2586.48 490.26 2586.43 477.75
  Q 2586.16 418.83 2586.21 359.92
  C 2586.22 351.87 2587.43 346.05 2596.48 345.76
  C 2605.43 345.46 2608.58 349.15 2608.57 357.75
  Q 2608.55 363.77 2608.77 369.99
  Q 2608.82 371.41 2609.59 370.22
  Z"
/>
<path d="
  M 335.66 630.63
  Q 334.86 631.99 336.43 632.18
  C 353.20 634.20 365.67 629.13 379.98 622.01
  Q 387.49 618.27 398.42 608.99
  C 407.22 601.53 414.74 593.09 423.78 585.93
  Q 426.29 583.95 428.93 582.34
  Q 431.61 580.72 434.37 579.21
  Q 441.47 575.33 448.71 574.38
  Q 450.70 574.12 449.47 575.70
  C 441.32 586.29 430.90 594.86 421.15 603.97
  C 416.67 608.15 412.54 613.36 407.72 617.21
  C 400.44 623.02 393.91 628.85 385.77 633.52
  Q 384.98 633.97 382.71 635.52
  C 378.54 638.35 373.12 639.70 368.46 642.02
  C 355.18 648.64 338.50 650.26 323.88 649.32
  Q 319.12 649.01 314.54 647.64
  C 305.01 644.80 295.19 643.82 285.80 640.58
  Q 281.77 639.19 275.51 634.47
  C 273.75 633.15 270.99 631.75 268.33 630.83
  C 262.07 628.66 256.33 624.74 254.51 618.10
  Q 253.76 615.41 254.77 612.43
  C 257.77 603.57 263.48 594.75 269.22 587.76
  Q 269.52 587.40 273.79 583.24
  C 279.84 577.35 279.65 570.11 280.45 562.26
  C 281.11 555.64 282.58 548.18 282.75 540.89
  Q 282.76 540.40 283.24 540.50
  Q 283.39 540.53 283.51 540.61
  Q 283.62 540.69 283.69 540.87
  C 286.17 547.69 287.66 554.68 289.86 561.59
  Q 292.18 568.88 298.08 573.33
  A 0.90 0.88 46.2 0 0 299.11 573.36
  C 301.43 571.84 303.77 570.56 305.68 568.53
  C 308.23 565.83 310.47 563.31 312.54 560.00
  C 316.86 553.11 321.28 546.23 328.62 542.08
  A 0.44 0.44 0.0 0 1 329.28 542.45
  Q 329.33 543.78 329.10 545.24
  C 327.40 556.41 322.90 566.31 319.61 575.85
  Q 319.44 576.34 319.86 576.64
  C 334.17 586.93 351.55 609.16 338.67 627.36
  C 337.90 628.44 336.29 629.56 335.66 630.63
  Z
  M 293.81 609.42
  C 288.28 607.74 279.50 610.30 280.20 617.46
  Q 280.25 617.96 280.66 618.26
  C 282.78 619.78 284.82 622.04 286.75 623.00
  C 295.50 627.36 299.67 611.19 293.81 609.42
  Z"
/>
</g>
<g fill="#17999f">
<path d="
  M 252.91 203.92
  Q 252.71 204.94 253.45 204.21
  C 258.16 199.57 269.46 188.91 262.54 181.75
  Q 252.00 170.83 237.72 164.83
  Q 236.99 164.52 237.25 163.76
  C 238.56 160.04 243.59 154.30 246.44 151.55
  C 255.88 142.41 267.70 136.08 279.16 130.90
  C 283.03 129.16 286.89 127.16 290.75 125.71
  Q 297.97 123.01 305.24 120.44
  Q 327.03 112.74 337.24 110.76
  Q 350.37 108.22 363.52 105.81
  C 394.08 100.23 426.33 97.71 456.74 103.50
  C 465.67 105.20 475.68 109.40 481.72 116.23
  C 486.46 121.57 489.69 128.93 491.82 135.73
  C 495.89 148.77 501.03 160.98 507.83 172.10
  C 511.35 177.87 515.18 181.95 519.92 186.82
  C 528.27 195.41 519.84 208.51 515.65 216.92
  C 507.40 233.48 492.86 246.42 478.39 257.53
  C 451.62 278.09 420.96 294.59 389.57 306.87
  C 381.92 309.86 373.43 312.31 365.16 314.81
  C 341.14 322.05 315.64 325.09 290.61 324.44
  Q 277.11 324.09 271.95 323.13
  C 259.83 320.86 249.71 313.99 240.30 306.43
  Q 239.01 305.39 239.48 306.98
  C 245.63 327.89 263.98 339.43 284.65 342.63
  Q 291.15 343.64 301.41 343.07
  C 318.60 342.12 336.11 340.52 352.99 337.05
  Q 361.27 335.35 379.46 329.71
  C 380.50 329.39 381.42 328.79 382.49 328.43
  C 406.05 320.52 428.57 310.15 450.03 297.67
  Q 480.08 280.21 504.58 255.33
  C 517.78 241.93 529.94 222.75 531.70 203.63
  Q 531.87 201.82 532.95 203.29
  C 537.68 209.72 550.33 216.46 545.39 225.95
  C 541.06 234.28 536.78 238.89 531.97 247.50
  Q 528.30 254.05 525.54 258.24
  C 511.61 279.37 496.55 299.82 479.11 318.21
  C 472.75 324.92 465.51 331.69 458.63 338.36
  C 449.06 347.65 439.18 356.68 430.28 363.99
  C 423.76 369.34 416.92 373.92 410.03 378.74
  Q 384.90 396.35 355.99 406.71
  Q 351.18 408.44 331.74 413.04
  Q 316.47 416.66 292.75 417.18
  C 262.06 417.85 227.70 406.59 211.47 378.45
  C 203.19 364.09 200.96 349.52 202.22 332.71
  C 203.36 317.47 206.81 303.22 211.81 288.21
  Q 217.09 272.38 222.99 257.34
  Q 223.39 256.31 224.00 257.23
  C 237.93 278.28 256.39 295.01 283.00 296.23
  C 306.55 297.30 331.88 293.64 354.51 288.25
  C 355.44 288.03 356.60 287.39 357.66 287.13
  Q 367.85 284.56 377.73 280.97
  Q 420.74 265.33 458.54 237.02
  Q 460.07 235.87 458.20 236.30
  C 455.26 236.98 452.07 239.12 449.59 240.18
  C 443.60 242.73 437.09 245.96 431.83 248.26
  Q 410.57 257.54 400.76 261.31
  C 376.91 270.47 351.37 276.88 326.49 281.03
  Q 321.20 281.92 313.74 282.31
  Q 288.40 283.64 275.75 283.71
  C 261.60 283.79 244.65 272.54 236.66 262.07
  C 233.43 257.85 228.61 251.69 228.83 245.08
  Q 228.91 242.68 230.97 235.62
  Q 234.08 224.97 236.24 212.50
  C 237.95 202.61 235.79 193.51 235.31 183.79
  C 235.12 179.94 234.33 176.42 233.55 172.76
  A 0.26 0.26 0.0 0 1 233.93 172.48
  Q 240.57 176.48 247.58 179.63
  Q 250.35 180.88 252.28 185.73
  C 254.59 191.57 254.06 197.99 252.91 203.92
  Z
  M 338.62 191.08
  C 362.50 185.85 386.46 180.94 410.40 175.98
  Q 429.39 172.04 446.11 164.86
  Q 449.43 163.44 445.88 164.10
  C 411.66 170.52 376.45 176.17 341.60 181.57
  C 330.67 183.26 319.19 185.60 307.98 187.61
  C 291.05 190.63 274.67 198.58 269.32 216.44
  Q 268.79 218.20 270.01 216.82
  Q 279.45 206.15 293.75 201.31
  C 308.08 196.46 323.68 194.36 338.62 191.08
  Z"
/>
<path d="
  M 394.70 405.90
  L 392.00 406.21
  Q 393.71 405.14 394.70 405.90
  Z"
/>
</g>
</svg>
